<svg width="22" height="28" viewBox="0 0 22 28" fill="none" xmlns="http://www.w3.org/2000/svg">
<path d="M18.375 14.8585C18.3443 11.4475 21.1722 9.78802 21.3015 9.71076C19.7 7.37923 17.2176 7.06067 16.3453 7.03527C14.2604 6.81619 12.238 8.28094 11.176 8.28094C10.0928 8.28094 8.45728 7.05644 6.69462 7.09242C4.42637 7.12735 2.30439 8.43863 1.14059 10.4749C-1.26121 14.6268 0.530066 20.7281 2.83117 24.0841C3.98226 25.7277 5.32731 27.5629 7.08785 27.4983C8.81024 27.4274 9.45361 26.4019 11.5321 26.4019C13.5916 26.4019 14.1957 27.4983 15.9913 27.4571C17.8398 27.4274 19.0036 25.8061 20.1144 24.1476C21.4446 22.2638 21.9788 20.4085 22 20.3133C21.9565 20.2984 18.41 18.9469 18.375 14.8585Z" fill="#311D4D"/>
<path d="M14.9833 4.82757C15.9096 3.6708 16.5435 2.09704 16.3675 0.5C15.0267 0.559267 13.3499 1.42605 12.3843 2.55742C11.53 3.55438 10.7669 5.18846 10.964 6.72518C12.4702 6.83736 14.0166 5.96634 14.9833 4.82757Z" fill="#311D4D"/>
</svg>
