<svg width="24" height="24" viewBox="0 0 24 24" fill="none" xmlns="http://www.w3.org/2000/svg">
<path d="M7.99999 21.9998C8.55227 21.9998 8.99999 21.5521 8.99999 20.9998C8.99999 20.4475 8.55227 19.9998 7.99999 19.9998C7.4477 19.9998 6.99999 20.4475 6.99999 20.9998C6.99999 21.5521 7.4477 21.9998 7.99999 21.9998Z" fill="#5D3399"/>
<path d="M19 21.9998C19.5523 21.9998 20 21.5521 20 20.9998C20 20.4475 19.5523 19.9998 19 19.9998C18.4477 19.9998 18 20.4475 18 20.9998C18 21.5521 18.4477 21.9998 19 21.9998Z" fill="#5D3399"/>
<path d="M2.04999 2.0498H4.04999L6.70999 14.4698C6.80757 14.9247 7.06066 15.3313 7.4257 15.6197C7.79074 15.908 8.24489 16.0602 8.70999 16.0498H18.49C18.9452 16.0491 19.3865 15.8931 19.741 15.6076C20.0956 15.3222 20.3421 14.9243 20.44 14.4798L22.09 7.04981H5.11999" fill="#5D3399"/>
<path d="M2.04999 2.0498H4.04999L6.70999 14.4698C6.80757 14.9247 7.06066 15.3313 7.4257 15.6197C7.79074 15.908 8.24489 16.0602 8.70999 16.0498H18.49C18.9452 16.0491 19.3865 15.8931 19.741 15.6076C20.0956 15.3222 20.3421 14.9243 20.44 14.4798L22.09 7.04981H5.11999M8.99999 20.9998C8.99999 21.5521 8.55227 21.9998 7.99999 21.9998C7.4477 21.9998 6.99999 21.5521 6.99999 20.9998C6.99999 20.4475 7.4477 19.9998 7.99999 19.9998C8.55227 19.9998 8.99999 20.4475 8.99999 20.9998ZM20 20.9998C20 21.5521 19.5523 21.9998 19 21.9998C18.4477 21.9998 18 21.5521 18 20.9998C18 20.4475 18.4477 19.9998 19 19.9998C19.5523 19.9998 20 20.4475 20 20.9998Z" stroke="#5D3399" stroke-linecap="round" stroke-linejoin="round"/>
</svg>
