<svg width="20" height="21" viewBox="0 0 20 21" fill="none" xmlns="http://www.w3.org/2000/svg">
<path d="M4.16661 17.9999H15.8333M9.63495 3.22156C9.67092 3.15623 9.72376 3.10176 9.78796 3.06382C9.85216 3.02587 9.92537 3.00586 9.99995 3.00586C10.0745 3.00586 10.1477 3.02587 10.2119 3.06382C10.2761 3.10176 10.329 3.15623 10.3649 3.22156L12.8249 7.89156C12.8836 7.9997 12.9655 8.0935 13.0647 8.16625C13.1639 8.23899 13.278 8.28886 13.3988 8.31228C13.5196 8.3357 13.644 8.33209 13.7632 8.30171C13.8824 8.27133 13.9934 8.21493 14.0883 8.13656L17.6524 5.08323C17.7209 5.02758 17.8052 4.99508 17.8932 4.9904C17.9813 4.98572 18.0686 5.0091 18.1425 5.05718C18.2165 5.10527 18.2732 5.17557 18.3047 5.25797C18.3361 5.34037 18.3406 5.43062 18.3174 5.51573L15.9558 14.0541C15.9076 14.2288 15.8037 14.383 15.66 14.4934C15.5162 14.6038 15.3404 14.6643 15.1591 14.6657H4.84161C4.66023 14.6645 4.48421 14.604 4.34027 14.4937C4.19634 14.3833 4.09236 14.2289 4.04411 14.0541L1.68328 5.51656C1.66015 5.43146 1.66463 5.34121 1.69606 5.25881C1.7275 5.1764 1.78427 5.1061 1.8582 5.05802C1.93213 5.00993 2.01941 4.98655 2.10748 4.99123C2.19555 4.99591 2.27986 5.02841 2.34828 5.08406L5.91161 8.1374C6.00645 8.21576 6.11745 8.27216 6.23667 8.30254C6.35588 8.33293 6.48034 8.33653 6.60111 8.31311C6.72189 8.28969 6.83598 8.23982 6.93519 8.16708C7.0344 8.09434 7.11628 8.00053 7.17495 7.8924L9.63495 3.22156Z" stroke="#5D3399" stroke-linecap="round" stroke-linejoin="round"/>
</svg>
