<svg width="20" height="20" viewBox="0 0 20 20" fill="none" xmlns="http://www.w3.org/2000/svg">
<path d="M4.8125 10.75L3 10.75M4.8125 10.75C4.8125 11.2307 5.00346 11.6917 5.34337 12.0316C5.68328 12.3715 6.1443 12.5625 6.625 12.5625C7.1057 12.5625 7.56672 12.3715 7.90663 12.0316C8.24654 11.6917 8.4375 11.2307 8.4375 10.75M4.8125 10.75C4.8125 10.2693 5.00346 9.80828 5.34337 9.46837C5.68328 9.12846 6.14429 8.9375 6.625 8.9375C7.1057 8.9375 7.56672 9.12846 7.90663 9.46837C8.24654 9.80828 8.4375 10.2693 8.4375 10.75M8.4375 10.75L17.5 10.75M15.6875 16.1875C15.6875 15.7068 15.4965 15.2458 15.1566 14.9059C14.8167 14.566 14.3557 14.375 13.875 14.375C13.3943 14.375 12.9333 14.566 12.5934 14.9059C12.2535 15.2458 12.0625 15.7068 12.0625 16.1875M15.6875 16.1875C15.6875 16.6682 15.4965 17.1292 15.1566 17.4691C14.8167 17.809 14.3557 18 13.875 18C13.3943 18 12.9333 17.809 12.5934 17.4691C12.2535 17.1292 12.0625 16.6682 12.0625 16.1875M15.6875 16.1875L17.5 16.1875M12.0625 16.1875L3 16.1875M15.6875 5.3125C15.6875 4.83179 15.4965 4.37078 15.1566 4.03087C14.8167 3.69096 14.3557 3.5 13.875 3.5C13.3943 3.5 12.9333 3.69096 12.5934 4.03087C12.2535 4.37078 12.0625 4.83179 12.0625 5.3125M15.6875 5.3125C15.6875 5.7932 15.4965 6.25422 15.1566 6.59413C14.8167 6.93404 14.3557 7.125 13.875 7.125C13.3943 7.125 12.9333 6.93404 12.5934 6.59413C12.2535 6.25422 12.0625 5.7932 12.0625 5.3125M15.6875 5.3125L17.5 5.3125M12.0625 5.3125L3 5.3125" stroke="#5D3399" stroke-linecap="round" stroke-linejoin="round"/>
</svg>
