<svg width="43" height="42" viewBox="0 0 43 42" fill="none" xmlns="http://www.w3.org/2000/svg">
<path d="M40.2501 13.25C40.2501 13.8725 39.9951 14.435 39.5901 14.84C39.1851 15.245 38.6226 15.5 38.0001 15.5H8.00008C7.55472 15.501 7.11909 15.3697 6.74851 15.1227C6.37793 14.8757 6.08912 14.5241 5.91874 14.1126C5.74836 13.7011 5.7041 13.2483 5.79158 12.8116C5.87906 12.3749 6.09434 11.9741 6.41008 11.66C6.81508 11.255 7.37758 11 8.00008 11H38.0001C39.2451 11 40.2501 12.005 40.2501 13.25Z" fill="#E5B67F"/>
<path d="M32.75 11C32.75 11.6225 32.495 12.185 32.09 12.59C31.685 12.995 31.1225 13.25 30.5 13.25H5.75C5.75 12.6275 6.005 12.065 6.41 11.66C6.815 11.255 7.3775 11 8 11H32.75Z" fill="#FFE3B6"/>
<path d="M44.6225 40.3775C44.0583 39.8168 43.2955 39.5014 42.5 39.5C42.0875 39.5 41.7425 39.2 41.675 38.795L38.3975 18.035C38.3375 17.66 38.21 17.3075 38.03 17H8.72C8.54 17.3075 8.4125 17.66 8.3525 18.035L5.315 37.25L5.1875 38.0525C5.06 38.885 4.34 39.5 3.5 39.5C2.66 39.5 1.925 39.8375 1.3775 40.3775C0.8375 40.925 0.5 41.675 0.5 42.5C0.5 44.1575 1.8425 45.5 3.5 45.5H42.5C44.1575 45.5 45.5 44.1575 45.5 42.5C45.5 41.675 45.1625 40.925 44.6225 40.3775ZM28.1675 38.69C25.76 40.205 23 41.0375 20.405 41.0375C17.015 41.0375 14.1725 39.665 12.59 37.25H20.0075C25.1825 37.25 29.5925 33.485 30.4025 28.37L30.5375 27.5225C30.6725 27.1325 30.7775 26.7425 30.8525 26.345L31.1075 24.905L32.555 25.1225C33.695 25.295 34.565 26.225 34.67 27.3725C35.0675 31.505 32.51 35.945 28.1675 38.69Z" fill="#F4D09F"/>
<path d="M32.1949 17L30.5374 27.5225L30.4024 28.37C30.0105 30.8453 28.7483 33.0995 26.8428 34.7273C24.9373 36.3551 22.5135 37.2496 20.0074 37.25H5.31494L8.35244 18.035C8.41244 17.66 8.53994 17.3075 8.71994 17H32.1949Z" fill="#FFE3B6"/>
<path d="M28.1676 38.6898C25.7601 40.2048 23.0001 41.0373 20.4051 41.0373C17.0151 41.0373 14.1726 39.6648 12.5901 37.2498H20.0076C25.1826 37.2498 29.5926 33.4848 30.4026 28.3698L30.5376 27.5223C30.6726 27.1323 30.7776 26.7423 30.8526 26.3448L31.1076 24.9048L32.5551 25.1223C33.6951 25.2948 34.5651 26.2248 34.6701 27.3723C35.0676 31.5048 32.5101 35.9448 28.1676 38.6898Z" fill="#F4D09F"/>
<path d="M27.365 37.4223C22.265 40.6323 16.1825 40.1373 13.775 36.3198C13.13 35.2923 12.815 34.1373 12.7925 32.9223C12.8675 33.0573 12.9425 33.1923 13.025 33.3198C15.4325 37.1373 21.515 37.6323 26.615 34.4223C29.78 32.4273 31.82 29.4723 32.33 26.6073C32.7725 26.6748 33.1325 27.0348 33.1775 27.5148C33.5075 30.9573 31.31 34.9323 27.365 37.4223Z" fill="#915857"/>
<path d="M32.3299 26.6073C31.8199 29.4723 29.7799 32.4273 26.6149 34.4223C21.5149 37.6323 15.4324 37.1373 13.0249 33.3198C12.9424 33.1923 12.8674 33.0573 12.7924 32.9223C12.7474 29.6073 14.9074 25.9323 18.6349 23.5773C21.9724 21.4773 25.7299 20.9598 28.6024 21.9423C29.3599 22.1823 30.0574 22.5423 30.6724 23.0073C30.8974 23.1798 31.0249 23.4123 31.0549 23.6523C31.1299 24.1398 30.8374 24.6573 30.2674 24.7548C29.9824 24.8073 29.6974 24.8673 29.4124 24.9273C24.6274 25.9998 20.4649 28.9398 17.6224 32.9373L16.7299 34.1973C16.5349 34.4823 16.5949 34.8648 16.8724 35.0598C16.99 35.1458 17.1341 35.1876 17.2795 35.178C17.4248 35.1684 17.5622 35.108 17.6674 35.0073L21.0949 31.7448C23.8024 29.1798 27.1774 27.4848 30.8599 26.8698C31.1449 26.8248 31.6774 26.6823 31.9624 26.6148C32.0899 26.5923 32.2099 26.5848 32.3299 26.6073Z" fill="#A97370"/>
<path d="M25.9325 4.84228C25.8725 5.03728 25.79 5.23228 25.7 5.42728C25.49 5.85478 25.235 6.22978 24.935 6.55228C24.485 7.03978 23.9525 7.39228 23.3975 7.57978C23.3975 7.57978 23.3975 7.58728 23.39 7.58728C23.1575 7.66228 22.925 7.71478 22.6925 7.73728C22.235 7.77478 21.785 7.69978 21.365 7.49728L21.455 6.80728C21.455 6.80728 21.4625 6.72478 21.4775 6.68728C21.6365 5.66841 22.1817 4.74988 23 4.12228C23.8499 3.46689 24.4054 2.50142 24.545 1.43728L24.635 0.747284C25.97 1.39228 26.4875 3.14728 25.9325 4.84228Z" fill="#7C4949"/>
<path d="M24.6351 0.747269L24.5451 1.43727C24.4101 2.50227 23.8476 3.46227 23.0001 4.12227C22.1819 4.74986 21.6367 5.66839 21.4776 6.68727C21.4626 6.72477 21.4626 6.76977 21.4551 6.80727L21.3651 7.49727C20.921 7.28127 20.5524 6.93622 20.3076 6.50727C20.2326 6.39477 20.1726 6.30477 20.1276 6.18477C20.0826 6.06477 20.1351 6.16977 20.1276 6.16977C19.8876 5.62227 19.7976 4.99227 19.8651 4.32477C19.9176 3.81477 20.0601 3.30477 20.3001 2.80977C21.2076 0.949769 23.1426 0.0197687 24.6351 0.747269ZM14.8851 5.99727L14.7951 6.68727C14.7126 7.31727 14.4876 7.90227 14.1351 8.41977C13.8951 8.77977 13.5951 9.10227 13.2501 9.37227C12.6951 9.79977 12.2601 10.3623 11.9901 10.9998H10.2351C9.98011 10.1148 10.0701 9.05727 10.5501 8.05977C11.2926 6.53727 12.7176 5.63727 14.0301 5.76477C14.3226 5.78727 14.6151 5.86977 14.8851 5.99727Z" fill="#A97370"/>
<path d="M20.1275 6.16225V6.18475C20.12 6.29725 20.105 6.41725 20.075 6.53725C20.0075 6.91975 19.88 7.30225 19.7 7.67725C19.0925 8.93725 18.02 9.76225 16.925 9.95725C16.685 9.99475 16.445 10.0023 16.2125 9.97975C16.505 9.03475 16.4525 8.07475 16.115 7.31725C16.355 6.95725 16.655 6.64225 17 6.37225C17.8499 5.71686 18.4054 4.75139 18.545 3.68725L18.635 2.99725C19.1975 3.26725 19.6175 3.73975 19.865 4.31725C19.7975 4.99225 19.8875 5.62225 20.1275 6.16225Z" fill="#7C4949"/>
<path d="M18.635 2.99727L18.545 3.68727C18.41 4.75227 17.8475 5.71227 17 6.37227C16.655 6.64227 16.355 6.95727 16.115 7.31727C15.8675 6.73977 15.4475 6.26727 14.885 5.99727C14.6165 5.86866 14.3268 5.78988 14.03 5.76477C14.0975 5.53227 14.1875 5.29227 14.3 5.05977C15.2075 3.19977 17.1425 2.26977 18.635 2.99727Z" fill="#A97370"/>
<path d="M16.2125 9.97975C16.1525 10.2123 16.0625 10.4448 15.95 10.6773C15.8975 10.7898 15.8375 10.8948 15.7775 10.9998H11.99C12.26 10.3623 12.695 9.79975 13.25 9.37225C13.595 9.10225 13.895 8.77975 14.135 8.41975C14.4875 7.90225 14.7125 7.31725 14.795 6.68725L14.885 5.99725C15.4475 6.26725 15.8675 6.73975 16.115 7.31725C16.4525 8.07475 16.505 9.03475 16.2125 9.97975Z" fill="#7C4949"/>
<path d="M23.0001 8.43475C22.7976 9.09475 22.7826 9.85225 23.0001 10.6173C22.9701 10.7448 22.9326 10.8723 22.8801 10.9998H15.7776C15.8376 10.8948 15.8976 10.7898 15.9501 10.6773C16.0626 10.4448 16.1526 10.2123 16.2126 9.97975C16.4451 10.0023 16.6851 9.99475 16.9251 9.95725C18.0201 9.76225 19.0926 8.93725 19.7001 7.67725C19.8801 7.30225 20.0076 6.91975 20.0751 6.53725C20.1051 6.41725 20.1201 6.29725 20.1276 6.18475C20.1726 6.30475 20.2326 6.39475 20.3076 6.50725C20.5551 6.93475 20.9151 7.27975 21.3651 7.49725C21.7851 7.69975 22.2351 7.77475 22.6926 7.73725C22.9251 7.71475 23.1576 7.66225 23.3901 7.58725C23.2251 7.84225 23.0901 8.11975 23.0001 8.43475Z" fill="#663A3A"/>
<path d="M34.0025 10.9998H30.2225C30.1625 10.8948 30.1025 10.7898 30.05 10.6773C29.9375 10.4448 29.8475 10.2123 29.7875 9.97975C29.495 9.03475 29.54 8.07475 29.885 7.31725C30.1325 6.73975 30.5525 6.26725 31.115 5.99725L31.205 6.68725C31.2875 7.31725 31.5125 7.90975 31.865 8.42725C32.105 8.77975 32.3975 9.10225 32.75 9.37225C33.305 9.79975 33.7325 10.3623 34.0025 10.9998Z" fill="#7C4949"/>
<path d="M35.7649 10.9998H34.0024C33.7324 10.3623 33.3049 9.79975 32.7499 9.37225C32.3974 9.10225 32.1049 8.77975 31.8649 8.42725C31.5124 7.90975 31.2874 7.31725 31.2049 6.68725L31.1149 5.99725C31.3849 5.86975 31.6774 5.78725 31.9699 5.76475C33.2749 5.63725 34.7074 6.53725 35.4499 8.05975C35.9299 9.05725 36.0199 10.1148 35.7649 10.9998ZM29.7874 9.97975C29.5549 10.0023 29.3149 9.99475 29.0749 9.95725C27.9799 9.76225 26.8999 8.93725 26.2999 7.67725C26.1199 7.30225 25.9924 6.91975 25.9249 6.53725C25.8096 5.98012 25.8147 5.40475 25.9399 4.84975C26.1424 4.03225 26.6374 3.34975 27.3649 2.99725L27.4549 3.68725C27.5899 4.75225 28.1449 5.71225 28.9999 6.37225C29.3449 6.64225 29.6449 6.95725 29.8849 7.31725C29.5399 8.07475 29.4949 9.03475 29.7874 9.97975Z" fill="#A97370"/>
<path d="M31.9701 5.76477C31.6776 5.78727 31.3851 5.86977 31.1151 5.99727C30.5526 6.26727 30.1326 6.73977 29.8851 7.31727C29.6451 6.95727 29.3451 6.64227 29.0001 6.37227C28.5781 6.04886 28.2243 5.64509 27.9591 5.18425C27.6939 4.72342 27.5226 4.21464 27.4551 3.68727L27.3651 2.99727C28.8501 2.26977 30.7926 3.19977 31.7001 5.05977C31.8126 5.29227 31.9026 5.53227 31.9701 5.76477ZM22.8801 10.9998C22.9326 10.8723 22.9701 10.7448 23.0001 10.6173C22.7826 9.85227 22.7976 9.09477 23.0001 8.43477C23.0901 8.11977 23.2251 7.84227 23.3901 7.58727C23.3976 7.58727 23.3976 7.57977 23.3976 7.57977C23.9526 7.39227 24.4851 7.03977 24.9351 6.55227C25.2351 6.22977 25.4901 5.85477 25.7001 5.42727C25.7901 5.23227 25.8726 5.03727 25.9326 4.84227H25.9401C25.8201 5.37477 25.8051 5.95227 25.9251 6.53727C25.9926 6.91977 26.1201 7.30227 26.3001 7.67727C26.9001 8.93727 27.9801 9.76227 29.0751 9.95727C29.3151 9.99477 29.5551 10.0023 29.7876 9.97977C29.8476 10.2123 29.9376 10.4448 30.0501 10.6773C30.1026 10.7898 30.1626 10.8948 30.2226 10.9998H22.8801Z" fill="#7C4949"/>
<path d="M38.0301 17H32.1951L32.4351 15.5H35.4351C36.5376 15.5 37.5126 16.0925 38.0301 17Z" fill="#DDB483"/>
<path d="M32.435 15.5L32.195 17H8.71997C9.23747 16.0925 10.2125 15.5 11.315 15.5H32.435Z" fill="#E8C99C"/>
</svg>
