<svg width="44" height="43" viewBox="0 0 44 43" fill="none" xmlns="http://www.w3.org/2000/svg">
<path d="M47.9999 25.2512C47.9999 31.7705 43.7858 37.1054 38.6355 37.1054H33.1413C31.7141 37.1054 30.358 36.6956 29.1447 35.9639C25.6416 33.8549 23.7769 29.4786 23.7769 25.2511C23.7769 22.1545 24.9272 19.3819 26.7142 17.5849C27.7422 16.5503 28.5504 15.2407 29.1002 13.7751C29.4964 12.7202 29.7589 11.5856 29.8754 10.4119C29.9211 9.95455 29.9442 9.49011 29.9442 9.02286C29.9442 4.88473 32.6198 1.49942 35.8885 1.49942C37.5233 1.49942 39.0094 2.34542 40.0868 3.70948C41.1642 5.07326 41.8324 6.9538 41.8324 9.02286C41.8324 12.3481 43.0069 15.5158 45.0633 17.5849C45.956 18.4835 46.6903 19.6258 47.2015 20.9306C47.7125 22.2361 47.9999 23.7028 47.9999 25.2512Z" fill="#96EE99"/>
<path d="M35.3832 21.4931C35.3104 23.735 34.6647 25.9312 33.562 27.9332L29.1452 35.9639C25.6416 33.8549 23.7769 29.4786 23.7769 25.2511C23.7769 22.1545 24.9272 19.3818 26.7146 17.5848C27.7422 16.5503 28.5504 15.2407 29.1005 13.7752C29.4967 12.7201 29.7589 11.5856 29.8754 10.4119C31.6259 11.3516 33.4939 13.0998 34.6112 16.3453C35.1804 17.9997 35.4421 19.7444 35.3832 21.4931Z" fill="#58E36E"/>
<path d="M43.1327 25.6594C43.1327 29.5562 39.9738 32.7155 36.0768 32.7155C32.18 32.7155 29.0208 29.5561 29.0208 25.6593C29.0208 21.7625 32.18 18.6032 36.0768 18.6032C39.9738 18.6032 43.1327 21.7625 43.1327 25.6593V25.6594Z" fill="#AE583E"/>
<path d="M35.1968 18.6577C28.9686 19.4326 26.8028 27.3886 31.7481 31.2315L33.562 27.9335C34.6643 25.9314 35.3104 23.7352 35.3832 21.4933C35.4148 20.5443 35.3524 19.5945 35.1968 18.6577Z" fill="#7C3F2C"/>
<path d="M15.2258 6.67274C14.857 4.99368 12.9552 -1.08657 4.9202 0.296617C4.6862 0.336929 4.55551 0.590335 4.6577 0.804929C5.49011 2.5528 9.02036 9.03112 14.8969 7.22896C15.1346 7.15612 15.2789 6.91555 15.2258 6.67274Z" fill="#8EF2EA"/>
<path d="M14.8964 7.22858C9.0205 9.03139 5.49015 2.55326 4.65784 0.804825C4.55603 0.58995 4.68597 0.336544 4.91997 0.2967C5.60772 0.1782 6.25197 0.114169 6.85328 0.0984192C8.0859 2.27333 10.8456 6.06983 14.9802 5.77723C15.0767 6.07162 15.1587 6.37057 15.2259 6.67301C15.2793 6.91583 15.1344 7.15564 14.8964 7.22848V7.22858Z" fill="#58E36E"/>
<path d="M15.621 12.0219C15.5253 12.022 15.4306 12.0031 15.3422 11.9666C15.2538 11.93 15.1735 11.8763 15.1059 11.8087C15.0382 11.741 14.9845 11.6607 14.948 11.5723C14.9114 11.4839 14.8925 11.3892 14.8926 11.2935V0.889204C14.8926 0.486735 15.2185 0.160767 15.621 0.160767C16.0235 0.160767 16.3495 0.486735 16.3495 0.889204V11.2936C16.3495 11.3892 16.3307 11.484 16.2941 11.5724C16.2575 11.6608 16.2038 11.7411 16.1362 11.8087C16.0685 11.8764 15.9882 11.93 15.8998 11.9666C15.8114 12.0032 15.7167 12.022 15.621 12.0219Z" fill="#C0694E"/>
<path d="M29.4111 27.9333L24.2841 37.2552C22.9581 39.4276 19.9412 40.2168 17.5608 38.9753C16.341 38.3392 14.9014 38.3392 13.6801 38.9753C11.3547 40.1882 8.3195 39.4828 6.95797 37.2552L1.82984 27.9333C-0.27025 24.1163 -0.481187 20.021 0.781156 16.3457C2.35663 11.7662 5.43022 10.1684 7.55347 9.61653C8.528 9.36312 9.30322 9.33022 9.64241 9.33022C9.76241 9.33022 9.82766 9.33387 9.82766 9.33387C10.7875 9.33387 11.7073 9.49531 12.5556 9.7894C13.4026 10.0838 14.1797 10.5122 14.8546 11.0455C15.068 11.2285 15.3399 11.3292 15.6211 11.3292C15.9023 11.3292 16.1742 11.2285 16.3876 11.0455C17.0629 10.5123 17.8389 10.0839 18.687 9.7894C19.5348 9.49531 20.454 9.33378 21.4146 9.33378C21.4146 9.33378 27.9064 8.92006 30.4603 16.3457C31.7324 20.0448 31.4999 24.1408 29.4112 27.9333H29.4111Z" fill="#DF5D5D"/>
<path d="M29.4112 27.9333L24.2842 37.2552C22.9582 39.4276 19.9413 40.2168 17.5609 38.9753C16.3411 38.3392 14.9015 38.3392 13.6802 38.9753C13.0259 39.317 12.3255 39.5012 11.6415 39.5495C11.6024 39.4715 7.53117 30.518 6.49299 28.2355C3.38864 21.4107 4.5923 13.8057 7.55349 9.61653C8.52802 9.36312 9.30324 9.33022 9.64242 9.33022C9.76242 9.33022 9.82767 9.33387 9.82767 9.33387C10.7875 9.33387 11.7074 9.49531 12.5556 9.7894C13.4026 10.0838 14.1797 10.5122 14.8546 11.0455C15.0681 11.2285 15.34 11.3292 15.6211 11.3292C15.9023 11.3292 16.1742 11.2285 16.3876 11.0455C17.0629 10.5123 17.8389 10.0839 18.687 9.7894C19.5348 9.49531 20.454 9.33378 21.4146 9.33378C21.4146 9.33378 27.9064 8.92006 30.4604 16.3457C31.7325 20.0448 31.5 24.1408 29.4113 27.9333H29.4112Z" fill="#FD7676"/>
<path d="M6.37277 30.2534C5.55499 30.6848 5.24186 31.6973 5.6733 32.5155C6.17974 33.4746 6.81949 34.3077 7.52739 35.0288L1.94233 34.4066C1.02349 34.3044 0.195485 34.9662 0.0929228 35.8853C-0.00926474 36.8042 0.652892 37.6322 1.57174 37.7347L7.15642 38.357C6.30714 38.9047 5.49967 39.5767 4.79477 40.4007C4.19383 41.1036 4.27614 42.1604 4.97889 42.7613C5.68164 43.3623 6.73858 43.2799 7.33952 42.5771C9.25258 40.3402 12.721 39.3808 15.6558 39.2849C16.8207 39.2472 17.5946 38.0552 17.1489 36.9759C17.0463 36.7271 16.8852 36.5066 16.6794 36.3332C16.4736 36.1597 16.229 36.0384 15.9664 35.9795C15.9132 35.9674 10.6069 34.6894 8.63477 30.9526C8.20305 30.1348 7.19045 29.8217 6.37277 30.2534Z" fill="#58E36E"/>
<path d="M47.8145 41.2117C47.5755 43.3566 45.7638 44.9807 43.6054 44.9848C31.2296 45.0089 39.8792 44.9924 19.9602 45.0305C15.8221 45.0382 12.5979 41.442 13.0565 37.3303C13.1575 36.4268 13.4267 35.5863 13.8269 34.8344C15.0138 32.6079 17.3619 31.1624 19.9371 31.1624C20.4481 31.1624 20.9688 31.2189 21.4902 31.3387C39.0406 35.3483 40.4021 35.6592 41.5421 35.9196L42.974 36.247L44.5417 36.6055C46.2523 36.9951 47.5025 38.379 47.7813 40.0354C47.8464 40.4151 47.8593 40.8107 47.8145 41.2117Z" fill="#FFCC6F"/>
<path d="M47.7813 40.0354C47.0041 41.0517 45.7803 41.6995 44.4184 41.7013C32.0437 41.7258 40.6929 41.7093 20.7743 41.7471C16.9024 41.754 13.8317 38.6075 13.8269 34.8344C15.0138 32.6079 17.3616 31.1624 19.9368 31.1624C20.2136 31.1624 20.4927 31.1789 20.7732 31.2141C21.0113 31.2423 21.2512 31.284 21.4902 31.3386L22.2062 31.5016C40.7438 35.7379 24.2178 31.9612 41.5421 35.9196L42.9737 36.247L44.5417 36.6055C46.2523 36.9951 47.5026 38.379 47.7813 40.0354Z" fill="#FFB52D"/>
<path d="M42.9736 36.2468L42.421 41.878C42.4012 42.0559 42.3166 42.2203 42.1833 42.3398C42.05 42.4592 41.8774 42.5255 41.6985 42.5258C41.671 42.5258 41.6439 42.524 41.6169 42.5211C41.4248 42.4999 41.2491 42.4032 41.1283 42.2524C41.0075 42.1016 40.9515 41.9089 40.9726 41.7169L41.5421 35.9194L42.9736 36.2468ZM23.0785 40.4091L22.5888 45.0253L21.1229 45.0281L21.63 40.2481C21.6748 39.8478 22.0341 39.5592 22.4343 39.6038C22.8346 39.6486 23.1232 40.0088 23.0785 40.4091ZM36.4119 41.8945L36.0885 44.9992L34.6226 45.0021L34.9635 41.7334C34.9741 41.6382 35.0033 41.5461 35.0495 41.4623C35.0957 41.3785 35.158 41.3046 35.2328 41.2449C35.3076 41.1852 35.3934 41.1408 35.4854 41.1142C35.5774 41.0877 35.6736 41.0795 35.7688 41.0902C36.168 41.135 36.4565 41.4943 36.4119 41.8945ZM30.6436 33.4299L30.4254 35.8766C30.4055 36.0546 30.3208 36.219 30.1875 36.3385C30.0542 36.458 29.8816 36.5243 29.7026 36.5248C29.6754 36.5248 29.6483 36.5226 29.6208 36.5196C29.2205 36.4749 28.9323 36.1157 28.977 35.7155L29.211 33.1026L30.6436 33.4299ZM27.7821 42.0538L27.4759 45.0157L26.0103 45.0186L26.3338 41.8926C26.3784 41.4923 26.7399 41.2039 27.1391 41.2486C27.5383 41.2933 27.8267 41.6536 27.7821 42.0539V42.0538ZM22.2061 31.5015L21.7019 36.0246C21.6818 36.2025 21.597 36.3669 21.4635 36.4863C21.3301 36.6058 21.1574 36.672 20.9783 36.6724C20.951 36.6723 20.9237 36.6707 20.8965 36.6677C20.7046 36.6462 20.529 36.5494 20.4084 36.3985C20.2878 36.2476 20.2321 36.055 20.2535 35.863L20.7666 31.2576C20.7685 31.2433 20.7706 31.2286 20.7735 31.214C21.0112 31.2422 21.2515 31.2839 21.4902 31.3385L22.2061 31.5015Z" fill="#F29500"/>
</svg>
