<svg width="20" height="21" viewBox="0 0 20 21" fill="none" xmlns="http://www.w3.org/2000/svg">
<path d="M18.3334 10.5003C18.3334 15.1027 14.6025 18.8337 10.0001 18.8337M18.3334 10.5003C18.3334 5.89795 14.6025 2.16699 10.0001 2.16699M18.3334 10.5003H1.66675M10.0001 18.8337C5.39771 18.8337 1.66675 15.1027 1.66675 10.5003M10.0001 18.8337C7.86028 16.5869 6.66675 13.603 6.66675 10.5003C6.66675 7.39761 7.86028 4.41379 10.0001 2.16699M10.0001 18.8337C12.1399 16.5869 13.3334 13.603 13.3334 10.5003C13.3334 7.39761 12.1399 4.41379 10.0001 2.16699M1.66675 10.5003C1.66675 5.89795 5.39771 2.16699 10.0001 2.16699" stroke="#5D3399" stroke-linecap="round" stroke-linejoin="round"/>
</svg>
