<svg width="28" height="28" viewBox="0 0 28 28" fill="none" xmlns="http://www.w3.org/2000/svg">
<path fill-rule="evenodd" clip-rule="evenodd" d="M27.5 14.3069C27.5 13.3496 27.4123 12.4292 27.2495 11.5455H14.2755V16.7676H21.6892C21.3699 18.4551 20.3993 19.8848 18.9404 20.8421V24.2294H23.3924C25.9972 21.8791 27.5 18.4182 27.5 14.3069Z" fill="#4285F4"/>
<path fill-rule="evenodd" clip-rule="evenodd" d="M14.2755 27.5C17.9949 27.5 21.1132 26.2912 23.3924 24.2294L18.9404 20.8421C17.7069 21.6521 16.129 22.1306 14.2755 22.1306C10.6876 22.1306 7.65075 19.7559 6.5675 16.565H1.96522V20.0627C4.23192 24.4747 8.89055 27.5 14.2755 27.5Z" fill="#34A853"/>
<path fill-rule="evenodd" clip-rule="evenodd" d="M6.5675 16.565C6.29199 15.755 6.13544 14.8898 6.13544 14.0001C6.13544 13.1103 6.29198 12.2451 6.56749 11.4351V7.93733H1.96521C1.03224 9.75983 0.5 11.8216 0.5 14.0001C0.5 16.1785 1.03224 18.2402 1.96522 20.0627L6.5675 16.565Z" fill="#FBBC05"/>
<path fill-rule="evenodd" clip-rule="evenodd" d="M14.2755 5.86931C16.298 5.86931 18.1139 6.55045 19.5415 7.88817L23.4926 4.01613C21.1069 1.83773 17.9887 0.5 14.2755 0.5C8.89055 0.5 4.23191 3.52529 1.96521 7.93733L6.56749 11.4351C7.65075 8.24415 10.6876 5.86931 14.2755 5.86931Z" fill="#EA4335"/>
</svg>
