<svg width="80" height="81" viewBox="0 0 80 81" fill="none" xmlns="http://www.w3.org/2000/svg">
<path d="M48.5 72.5C48.5 76.8917 44.7217 80.5 40 80.5C35.2783 80.5 31.5 76.8917 31.5 72.5C31.5 68.1083 35.2783 64.5 40 64.5C44.7217 64.5 48.5 68.1083 48.5 72.5Z" fill="#F24D60" stroke="white"/>
<path d="M44.2648 72.5C44.2648 74.6826 42.3827 76.5 40.0001 76.5C37.6174 76.5 35.7354 74.6826 35.7354 72.5C35.7354 70.3174 37.6174 68.5 40.0001 68.5C42.3827 68.5 44.2648 70.3174 44.2648 72.5Z" fill="white" stroke="white"/>
<path d="M40 50C51.0457 50 60 41.0457 60 30C60 18.9543 51.0457 10 40 10C28.9543 10 20 18.9543 20 30C20 41.0457 28.9543 50 40 50Z" fill="#F24D60" stroke="#F24D60" stroke-width="2" stroke-linecap="round" stroke-linejoin="round"/>
<path d="M40 35C42.7614 35 45 32.7614 45 30C45 27.2386 42.7614 25 40 25C37.2386 25 35 27.2386 35 30C35 32.7614 37.2386 35 40 35Z" fill="white"/>
<path d="M40 50V71.6667" stroke="#F24D60" stroke-width="2" stroke-linecap="round" stroke-linejoin="round"/>
</svg>
