<svg width="20" height="21" viewBox="0 0 20 21" fill="none" xmlns="http://www.w3.org/2000/svg">
<path d="M15 8.00033H16.6666C17.1087 8.00033 17.5326 8.17592 17.8451 8.48848C18.1577 8.80104 18.3333 9.22496 18.3333 9.66699V18.8337L15 15.5003H9.99996C9.55793 15.5003 9.13401 15.3247 8.82145 15.0122C8.50889 14.6996 8.33329 14.2757 8.33329 13.8337V13.0003M11.6666 8.00033C11.6666 8.44235 11.491 8.86628 11.1785 9.17884C10.8659 9.4914 10.442 9.66699 9.99996 9.66699H4.99996L1.66663 13.0003V3.83366C1.66663 2.91699 2.41663 2.16699 3.33329 2.16699H9.99996C10.442 2.16699 10.8659 2.34259 11.1785 2.65515C11.491 2.96771 11.6666 3.39163 11.6666 3.83366V8.00033Z" stroke="#5D3399" stroke-linecap="round" stroke-linejoin="round"/>
</svg>
