<svg width="24" height="24" viewBox="0 0 24 24" fill="none" xmlns="http://www.w3.org/2000/svg">
<path d="M2 12.0004H5M5 12.0004C5 15.8664 8.13401 19.0004 12 19.0004M5 12.0004C5 8.13437 8.13401 5.00037 12 5.00037M19 12.0004H22M19 12.0004C19 15.8664 15.866 19.0004 12 19.0004M19 12.0004C19 8.13437 15.866 5.00037 12 5.00037M12 2.00037V5.00037M12 19.0004V22.0004M15 12.0004C15 13.6572 13.6569 15.0004 12 15.0004C10.3431 15.0004 9 13.6572 9 12.0004C9 10.3435 10.3431 9.00037 12 9.00037C13.6569 9.00037 15 10.3435 15 12.0004Z" stroke="white" stroke-width="1.5" stroke-linecap="round" stroke-linejoin="round"/>
</svg>
