<svg width="20" height="20" viewBox="0 0 20 20" fill="none" xmlns="http://www.w3.org/2000/svg">
<path d="M16.6666 8.33335C16.6666 13.3334 9.99992 18.3334 9.99992 18.3334C9.99992 18.3334 3.33325 13.3334 3.33325 8.33335C3.33325 6.56524 4.03563 4.86955 5.28587 3.61931C6.53612 2.36907 8.23181 1.66669 9.99992 1.66669C11.768 1.66669 13.4637 2.36907 14.714 3.61931C15.9642 4.86955 16.6666 6.56524 16.6666 8.33335Z" stroke="#5D3399" stroke-linecap="round" stroke-linejoin="round"/>
<path d="M9.99992 10.8334C11.3806 10.8334 12.4999 9.71407 12.4999 8.33335C12.4999 6.95264 11.3806 5.83335 9.99992 5.83335C8.61921 5.83335 7.49992 6.95264 7.49992 8.33335C7.49992 9.71407 8.61921 10.8334 9.99992 10.8334Z" stroke="#5D3399" stroke-linecap="round" stroke-linejoin="round"/>
</svg>
