<svg width="20" height="21" viewBox="0 0 20 21" fill="none" xmlns="http://www.w3.org/2000/svg">
<path d="M5.83333 8.83268V6.33268C5.83333 5.22761 6.27232 4.16781 7.05372 3.3864C7.83512 2.605 8.89493 2.16602 10 2.16602C11.1051 2.16602 12.1649 2.605 12.9463 3.3864C13.7277 4.16781 14.1667 5.22761 14.1667 6.33268V8.83268M10.8333 13.8327C10.8333 14.2929 10.4602 14.666 10 14.666C9.53976 14.666 9.16667 14.2929 9.16667 13.8327C9.16667 13.3724 9.53976 12.9993 10 12.9993C10.4602 12.9993 10.8333 13.3724 10.8333 13.8327ZM4.16667 8.83268H15.8333C16.7538 8.83268 17.5 9.57887 17.5 10.4993V17.166C17.5 18.0865 16.7538 18.8327 15.8333 18.8327H4.16667C3.24619 18.8327 2.5 18.0865 2.5 17.166V10.4993C2.5 9.57887 3.24619 8.83268 4.16667 8.83268Z" stroke="#5D3399" stroke-linecap="round" stroke-linejoin="round"/>
</svg>
