<svg width="20" height="21" viewBox="0 0 20 21" fill="none" xmlns="http://www.w3.org/2000/svg">
<path d="M7.36252 12.167H4.16669C3.99713 12.1762 3.83444 12.237 3.70041 12.3413C3.56637 12.4455 3.46738 12.5883 3.41669 12.7503L1.75002 17.7503C1.66669 17.8337 1.66669 17.917 1.66669 18.0003C1.66669 18.5003 2.00002 18.8337 2.50002 18.8337H17.5C18 18.8337 18.3334 18.5003 18.3334 18.0003C18.3334 17.917 18.3334 17.8337 18.25 17.7503L16.5834 12.7503C16.5327 12.5883 16.4337 12.4455 16.2996 12.3413C16.1656 12.237 16.0029 12.1762 15.8334 12.167H12.6375M15 7.16699C15 10.917 10 14.667 10 14.667C10 14.667 5.00002 10.917 5.00002 7.16699C5.00002 5.84091 5.5268 4.56914 6.46449 3.63146C7.40217 2.69378 8.67394 2.16699 10 2.16699C11.3261 2.16699 12.5979 2.69378 13.5356 3.63146C14.4732 4.56914 15 5.84091 15 7.16699ZM11.6667 7.16699C11.6667 8.08747 10.9205 8.83366 10 8.83366C9.07955 8.83366 8.33335 8.08747 8.33335 7.16699C8.33335 6.24652 9.07955 5.50033 10 5.50033C10.9205 5.50033 11.6667 6.24652 11.6667 7.16699Z" stroke="#5D3399" stroke-linecap="round" stroke-linejoin="round"/>
</svg>
