<svg width="40" height="40" viewBox="0 0 40 40" fill="none" xmlns="http://www.w3.org/2000/svg">
<path d="M39.2896 10.9481L35.0261 5.33335L34.3537 4.44829V1.6161C34.3537 1.24053 34.212 0.880345 33.9598 0.614776C33.7075 0.349207 33.3654 0.200012 33.0087 0.200012H15.5247C15.168 0.200012 14.8259 0.349207 14.5737 0.614776C14.3215 0.880345 14.1798 1.24053 14.1798 1.6161V4.44829L9.24387 10.9481C9.1092 11.1223 9.00244 11.3184 8.92782 11.5287C8.84474 11.7669 8.80151 12.0185 8.80005 12.2722V41.2667H38.3885C38.7448 41.2656 39.0863 41.116 39.3383 40.8507C39.5903 40.5854 39.7323 40.2258 39.7334 39.8506V12.2722C39.7342 11.7903 39.5775 11.3228 39.2896 10.9481Z" fill="#84B5CB"/>
<path d="M15.9821 0.200012H33.0843C33.4332 0.200012 33.7678 0.349853 34.0145 0.616571C34.2612 0.88329 34.3998 1.24504 34.3998 1.62223V4.46668H14.6665V1.62223C14.6665 1.24504 14.8051 0.88329 15.0518 0.616571C15.2985 0.349853 15.6332 0.200012 15.9821 0.200012Z" fill="#3B97D3"/>
<path d="M30.1334 11.4V41.8H8.80005V12.16C8.80159 11.9006 8.8473 11.6435 8.93516 11.4H30.1334Z" fill="#9FC9D3"/>
<path d="M39.7332 12.4V40.3641C39.7321 40.7446 39.5842 41.1091 39.3219 41.3782C39.0596 41.6472 38.7042 41.7989 38.3332 41.8H28.5332V11.6462L34.3999 4.46667L35.4665 5.81933L39.2712 11.0574C39.5709 11.4373 39.7341 11.9114 39.7332 12.4Z" fill="#3B97D3"/>
<path d="M34.9333 5.14892V25.6974C34.9333 25.8851 34.8771 26.0651 34.7771 26.1979C34.677 26.3306 34.5414 26.4051 34.3999 26.4051C34.2585 26.4051 34.1228 26.3306 34.0228 26.1979C33.9228 26.0651 33.8666 25.8851 33.8666 25.6974L33.793 5.14892L34.3999 4.46667L34.9333 5.14892ZM34.9333 28.5282V41.2667H33.8666V28.5282C33.8666 28.3405 33.9228 28.1605 34.0228 28.0278C34.1228 27.8951 34.2585 27.8205 34.3999 27.8205C34.5414 27.8205 34.677 27.8951 34.7771 28.0278C34.8771 28.1605 34.9333 28.3405 34.9333 28.5282Z" fill="#2980BA"/>
<path d="M24.4965 34.4068H28.5331V37.2573H24.4965V34.4068ZM24.4965 28.6629C25.3434 28.1383 26.047 27.412 26.5445 26.5489C27.042 25.6858 27.3177 24.7129 27.3471 23.7171C27.3471 20.1753 23.8409 17.3033 19.508 17.3033C18.1348 17.2558 16.7718 17.5563 15.5458 18.1767C14.3198 18.7972 13.2705 19.7176 12.4956 20.8523L24.4965 28.6629Z" fill="#ECF0F1"/>
<path d="M23.8995 25.6037C23.7622 25.4402 23.5908 25.3118 23.3984 25.2282L7.80543 18.4479C7.49375 18.3122 7.14597 18.2965 6.82425 18.4037C0.266602 20.6933 0.266602 25.6037 0.266602 25.6037V40.3276C0.267719 40.7178 0.416817 41.0916 0.681332 41.3675C0.945848 41.6433 1.30429 41.7988 1.67837 41.8H22.8548C23.2289 41.7988 23.5874 41.6433 23.8519 41.3675C24.1164 41.0916 24.2655 40.7178 24.2666 40.3276V26.5828C24.2664 26.22 24.1354 25.8705 23.8995 25.6037Z" fill="#F3D55B"/>
<path d="M24.1259 25.855H0.266602C0.266602 25.855 0.266602 21.1016 6.88706 18.8853C7.21186 18.7816 7.56298 18.7967 7.87764 18.9281L23.6199 25.4915C23.8142 25.5724 23.9873 25.6967 24.1259 25.855Z" fill="#F0C419"/>
<path d="M19.508 32.9816C20.6888 32.9816 21.646 32.0244 21.646 30.8437C21.646 29.6629 20.6888 28.7058 19.508 28.7058C18.3273 28.7058 17.3701 29.6629 17.3701 30.8437C17.3701 32.0244 18.3273 32.9816 19.508 32.9816Z" fill="#F29C1F"/>
<path d="M0.266602 35.54C0.717183 35.7324 1.20197 35.8317 1.69189 35.8322C2.63691 35.8322 3.54323 35.4568 4.21146 34.7885C4.8797 34.1203 5.25511 33.214 5.25511 32.269C5.25511 31.3239 4.8797 30.4176 4.21146 29.7494C3.54323 29.0812 2.63691 28.7057 1.69189 28.7057C1.20197 28.7062 0.717183 28.8056 0.266602 28.9979V35.54Z" fill="#F29C1F"/>
<path d="M10.2436 31.5563C11.0308 31.5563 11.6689 30.9182 11.6689 30.1311C11.6689 29.3439 11.0308 28.7058 10.2436 28.7058C9.45648 28.7058 8.81836 29.3439 8.81836 30.1311C8.81836 30.9182 9.45648 31.5563 10.2436 31.5563Z" fill="#F29C1F"/>
<path d="M8.10571 38.6828C8.89287 38.6828 9.53099 38.0447 9.53099 37.2575C9.53099 36.4703 8.89287 35.8322 8.10571 35.8322C7.31854 35.8322 6.68042 36.4703 6.68042 37.2575C6.68042 38.0447 7.31854 38.6828 8.10571 38.6828Z" fill="#F29C1F"/>
<path d="M16.6575 41.5333C18.2318 41.5333 19.508 40.2571 19.508 38.6828C19.508 37.1084 18.2318 35.8322 16.6575 35.8322C15.0831 35.8322 13.8069 37.1084 13.8069 38.6828C13.8069 40.2571 15.0831 41.5333 16.6575 41.5333Z" fill="#F29C1F"/>
</svg>
