<svg width="44" height="43" viewBox="0 0 44 43" fill="none" xmlns="http://www.w3.org/2000/svg">
<path d="M25.5658 23.4094V47.9062L6.0564 46.0219V29.1094L20.7751 28.2L25.5658 23.4094Z" fill="#FECE66"/>
<path d="M15.0094 44.2874H14.9344L9.31879 43.7436C8.88754 43.7061 8.56879 43.3218 8.61566 42.8905C8.65316 42.4593 9.04691 42.1499 9.46879 42.1874L15.0844 42.7311C15.5157 42.7686 15.8344 43.153 15.7875 43.5843C15.75 43.9874 15.4032 44.2874 15.0094 44.2874ZM12.0469 40.7624H11.9719L9.31879 40.4999C8.88754 40.4624 8.56879 40.078 8.61566 39.6468C8.65316 39.2155 9.04691 38.8968 9.46879 38.9436L12.1219 39.1968C12.5532 39.2343 12.8719 39.6186 12.825 40.0499C12.7875 40.453 12.45 40.7624 12.0469 40.7624Z" fill="#70C9E9"/>
<path d="M41.7 28.65V36.6188C41.4094 36.5719 41.1094 36.5438 40.8 36.5438C37.7344 36.5438 35.25 39.0281 35.25 42.0938C35.25 43.9031 36.1125 45.5063 37.4532 46.5188L25.5657 47.9062V23.4094L30.0188 27.8625C33.9188 28.125 37.8094 28.3969 41.7 28.65Z" fill="#F5B540"/>
<path d="M25.5657 23.4094L20.7751 28.2L6.0563 29.1094L1.65942 29.3813L6.0563 24.9844L25.5657 23.4094ZM45.6094 28.9125C44.3063 28.8281 43.0032 28.7438 41.7001 28.65C37.8094 28.3969 33.9094 28.125 30.0188 27.8625L25.5657 23.4094L41.7001 25.0219C43.0032 26.3156 44.3063 27.6188 45.6094 28.9125Z" fill="#FFD88A"/>
<path d="M23.8967 0.253278L25.5842 3.66578C25.6311 3.75015 25.7061 3.81578 25.7999 3.82515L29.5686 4.3689C29.803 4.4064 29.9061 4.69703 29.728 4.86578L26.9999 7.52828C26.9342 7.5939 26.8967 7.68765 26.9155 7.79078L27.5624 11.5408C27.5999 11.7752 27.3561 11.9627 27.1405 11.8502L23.7749 10.0783C23.6905 10.0314 23.5874 10.0314 23.503 10.0783L20.1374 11.8502C19.9217 11.9627 19.678 11.7845 19.7155 11.5408L20.3624 7.79078C20.3811 7.69703 20.3436 7.60328 20.278 7.52828L17.5405 4.87515C17.3717 4.7064 17.4655 4.41578 17.6999 4.37828L21.4686 3.83453C21.5624 3.82515 21.6467 3.75953 21.6842 3.67515L23.3717 0.262653C23.4842 0.037653 23.7842 0.037653 23.8967 0.253278ZM10.1999 6.08453L11.1842 8.06265C11.2124 8.10953 11.2592 8.14703 11.3155 8.1564L13.4999 8.47515C13.6405 8.4939 13.6967 8.66265 13.5936 8.76578L11.9999 10.2939C11.9624 10.3314 11.9436 10.3877 11.953 10.4439L12.328 12.6189C12.3561 12.7595 12.2061 12.8627 12.0842 12.797L10.1342 11.7752C10.0874 11.747 10.0217 11.747 9.97485 11.7752L8.02485 12.797C7.90298 12.8627 7.75298 12.7595 7.7811 12.6189L8.1561 10.4439C8.16548 10.3877 8.14673 10.3314 8.10923 10.2939L6.52485 8.7564C6.42173 8.66265 6.47798 8.48453 6.6186 8.46578L8.7936 8.1564C8.84985 8.14703 8.89673 8.10953 8.92485 8.06265L9.89985 6.08453C9.96548 5.95328 10.1436 5.95328 10.1999 6.08453ZM37.3686 6.08453L38.3436 8.06265C38.3717 8.10953 38.4186 8.14703 38.4749 8.1564L40.6592 8.47515C40.7999 8.4939 40.8561 8.66265 40.753 8.76578L39.178 10.3033C39.1405 10.3408 39.1217 10.397 39.1311 10.4533L39.5061 12.6283C39.5342 12.7689 39.3842 12.872 39.2624 12.8064L37.3124 11.7845C37.2655 11.7564 37.1999 11.7564 37.153 11.7845L35.203 12.8064C35.0811 12.872 34.9311 12.7689 34.9592 12.6283L35.3342 10.4533C35.3436 10.397 35.3249 10.3408 35.2874 10.3033L33.7124 8.76578C33.6092 8.67203 33.6655 8.4939 33.8061 8.47515L35.9905 8.1564C36.0467 8.14703 36.0936 8.10953 36.1217 8.06265L37.0967 6.08453C37.1249 5.95328 37.303 5.95328 37.3686 6.08453Z" fill="#EA6552"/>
<path d="M23.6346 21.3377C23.2034 21.3377 22.8565 20.9908 22.8565 20.5596V15.319C22.8565 14.8877 23.2034 14.5408 23.6346 14.5408C24.0659 14.5408 24.4128 14.8877 24.4128 15.319V20.5596C24.4128 20.9815 24.0659 21.3377 23.6346 21.3377ZM34.444 22.3596C34.3409 22.3596 34.2284 22.3408 34.1253 22.294C33.7315 22.1158 33.5534 21.6565 33.7221 21.2627L36.2815 15.4783C36.4596 15.0846 36.919 14.9065 37.3128 15.0752C37.7065 15.2533 37.8846 15.7127 37.7159 16.1065L35.1565 21.9002C35.0253 22.1908 34.744 22.3596 34.444 22.3596ZM29.5128 21.9658C29.4378 21.9658 29.3721 21.9565 29.2971 21.9377C28.8846 21.8158 28.6409 21.3846 28.7628 20.9721L30.9753 13.2752C31.0971 12.8627 31.5284 12.619 31.9409 12.7408C32.3534 12.8627 32.5971 13.294 32.4753 13.7065L30.2628 21.4033C30.169 21.7408 29.8596 21.9658 29.5128 21.9658ZM17.9159 22.0315C17.5784 22.0315 17.2596 21.8065 17.1659 21.469L15.0096 13.969C14.8878 13.5565 15.1315 13.1158 15.544 13.0033C15.9565 12.8815 16.3971 13.1252 16.5096 13.5377L18.6659 21.0377C18.7878 21.4502 18.544 21.8908 18.1315 22.0033C18.0659 22.0221 17.9909 22.0315 17.9159 22.0315ZM12.8253 22.3596C12.5253 22.3596 12.2346 22.1815 12.1128 21.8908L9.60025 16.2096C9.42213 15.8158 9.60025 15.3565 10.0034 15.1783C10.3971 15.0002 10.8565 15.1783 11.0346 15.5815L13.5471 21.2627C13.7253 21.6565 13.5471 22.1158 13.144 22.294C13.0409 22.3408 12.9378 22.3596 12.8253 22.3596Z" fill="#70C9E9"/>
<path d="M45.1406 45.5344C44.1281 46.8094 42.5625 47.6344 40.8 47.6344C39.5438 47.6344 38.3906 47.2125 37.4625 46.5188C36.1219 45.5063 35.25 43.9031 35.25 42.0938C35.25 40.3313 36.0656 38.7656 37.35 37.7531C36.5906 38.7 36.1406 39.9 36.1406 41.1938C36.1406 43.0031 37.0031 44.6063 38.3438 45.6188C39.2719 46.3219 40.4344 46.7344 41.6813 46.7344C42.9938 46.7344 44.1938 46.2844 45.1406 45.5344Z" fill="#58B4D9"/>
<path d="M46.3407 42.0938C46.3407 43.3969 45.8907 44.5969 45.1407 45.5344C44.1938 46.2844 42.9938 46.7344 41.7 46.7344C40.4438 46.7344 39.2907 46.3125 38.3625 45.6188C37.0219 44.6063 36.1594 43.0031 36.1594 41.1938C36.1594 39.8906 36.6094 38.6906 37.3688 37.7531C38.3157 36.9938 39.5157 36.5438 40.8094 36.5438C41.1188 36.5438 41.4188 36.5719 41.7094 36.6188C44.3344 37.05 46.3407 39.3375 46.3407 42.0938Z" fill="#70C9E9"/>
<path d="M43.6406 41.3063H41.5875V39.2438C41.5875 38.8125 41.2406 38.4656 40.8093 38.4656C40.3781 38.4656 40.0312 38.8125 40.0312 39.2438V41.3063H37.9781C37.5468 41.3063 37.2 41.6531 37.2 42.0844C37.2 42.5156 37.5468 42.8625 37.9781 42.8625H40.0312V44.925C40.0312 45.3563 40.3781 45.7031 40.8093 45.7031C41.2406 45.7031 41.5875 45.3563 41.5875 44.925V42.8625H43.6406C44.0718 42.8625 44.4187 42.5156 44.4187 42.0844C44.4187 41.6531 44.0718 41.3063 43.6406 41.3063Z" fill="#EA6552"/>
</svg>
