<svg width="24" height="24" viewBox="0 0 24 24" fill="none" xmlns="http://www.w3.org/2000/svg">
<path d="M14.9999 4.99965L18.9999 8.99965M21.1739 6.81165C21.7026 6.28307 21.9997 5.56612 21.9998 4.8185C21.9999 4.07089 21.703 3.35386 21.1744 2.82515C20.6459 2.29644 19.9289 1.99936 19.1813 1.99927C18.4337 1.99917 17.7166 2.29607 17.1879 2.82465L3.84193 16.1736C3.60975 16.4051 3.43805 16.6902 3.34193 17.0036L2.02093 21.3556C1.99509 21.4421 1.99314 21.534 2.01529 21.6215C2.03743 21.709 2.08285 21.7889 2.14673 21.8527C2.21061 21.9164 2.29055 21.9617 2.37809 21.9837C2.46563 22.0057 2.55749 22.0036 2.64393 21.9776L6.99693 20.6576C7.3101 20.5624 7.59511 20.3917 7.82693 20.1606L21.1739 6.81165Z" stroke="white" stroke-width="1.5" stroke-linecap="round" stroke-linejoin="round"/>
</svg>
