<svg width="20" height="21" viewBox="0 0 20 21" fill="none" xmlns="http://www.w3.org/2000/svg">
<path d="M12.5 8.00024L7.49998 13.0002M7.49998 8.00024H7.50831M12.5 13.0002H12.5083M3.20831 7.68358C3.08668 7.13568 3.10536 6.56595 3.26261 6.02719C3.41986 5.48844 3.7106 4.99811 4.10787 4.60168C4.50514 4.20524 4.99607 3.91553 5.53515 3.75941C6.07423 3.60328 6.64401 3.5858 7.19164 3.70858C7.49307 3.23716 7.90831 2.84921 8.3991 2.58048C8.88989 2.31175 9.44043 2.1709 9.99998 2.1709C10.5595 2.1709 11.1101 2.31175 11.6009 2.58048C12.0916 2.84921 12.5069 3.23716 12.8083 3.70858C13.3568 3.58526 13.9275 3.60267 14.4675 3.75917C15.0074 3.91568 15.499 4.20619 15.8965 4.60371C16.294 5.00122 16.5845 5.4928 16.741 6.03275C16.8976 6.57269 16.915 7.14344 16.7916 7.69191C17.2631 7.99334 17.651 8.40858 17.9197 8.89937C18.1885 9.39016 18.3293 9.9407 18.3293 10.5002C18.3293 11.0598 18.1885 11.6103 17.9197 12.1011C17.651 12.5919 17.2631 13.0072 16.7916 13.3086C16.9144 13.8562 16.8969 14.426 16.7408 14.9651C16.5847 15.5042 16.295 15.9951 15.8985 16.3924C15.5021 16.7896 15.0118 17.0804 14.473 17.2376C13.9343 17.3949 13.3645 17.4135 12.8166 17.2919C12.5156 17.7651 12.1 18.1547 11.6084 18.4247C11.1168 18.6946 10.565 18.8361 10.0041 18.8361C9.44329 18.8361 8.8915 18.6946 8.39987 18.4247C7.90825 18.1547 7.49268 17.7651 7.19164 17.2919C6.64401 17.4147 6.07423 17.3972 5.53515 17.2411C4.99607 17.085 4.50514 16.7952 4.10787 16.3988C3.7106 16.0024 3.41986 15.512 3.26261 14.9733C3.10536 14.4345 3.08668 13.8648 3.20831 13.3169C2.73327 13.0163 2.34199 12.6004 2.07085 12.1079C1.79971 11.6155 1.65753 11.0624 1.65753 10.5002C1.65753 9.93807 1.79971 9.38503 2.07085 8.89257C2.34199 8.4001 2.73327 7.98421 3.20831 7.68358Z" stroke="#5D3399" stroke-linecap="round" stroke-linejoin="round"/>
</svg>
