<svg width="44" height="43" viewBox="0 0 44 43" fill="none" xmlns="http://www.w3.org/2000/svg">
<g clip-path="url(#clip0_50_4994)">
<path d="M33.3097 23.4503V24.96C33.3096 25.0108 33.2894 25.0596 33.2535 25.0955C33.2175 25.1315 33.1688 25.1517 33.118 25.1517H28.6118L25.4254 28.3381C25.4076 28.3559 25.3865 28.3701 25.3633 28.3797C25.34 28.3894 25.315 28.3943 25.2899 28.3943C25.2387 28.3943 25.1905 28.3743 25.1543 28.3381L21.9679 25.1517H17.4618C17.411 25.1517 17.3622 25.1315 17.3263 25.0955C17.2903 25.0596 17.2701 25.0108 17.27 24.96V22.1595L9.23798 25.8387L8.16895 26.4315L8.52623 26.6981L23.8811 33.726L39.2358 26.6982L39.5932 26.4316L38.5237 25.8385L33.3097 23.4503Z" fill="#FFE177"/>
<path d="M17.1761 24.8898V22.3057L8.1687 26.4316L23.8808 33.623L26.7016 32.3319L13.8102 26.4316L17.1761 24.8898Z" fill="#FFD15B"/>
<path d="M8.1687 26.4318V40.8088L23.8807 48.0002L39.5929 40.8088V26.4318L23.8807 33.6231L8.1687 26.4318Z" fill="#F6A96C"/>
<path d="M8.1687 26.4318V40.8088L23.8807 48.0002V33.6231L8.1687 26.4318Z" fill="#FED2A4"/>
<path d="M14.874 31.836L10.4678 29.8193V39.525L14.874 41.5418V31.836Z" fill="white"/>
<path d="M12.1728 32.7388L14.874 33.9752V31.836L10.4678 29.8193V39.525L12.1728 40.3054V32.7388Z" fill="#EAF6FF"/>
<path d="M21.0574 44.6441C20.9565 44.6441 20.8569 44.6223 20.7653 44.5802L16.7085 42.7234C16.5405 42.6448 16.4103 42.503 16.3464 42.3289C16.2824 42.1548 16.2898 41.9625 16.367 41.7939C16.4442 41.6252 16.5849 41.4939 16.7585 41.4285C16.932 41.3631 17.1244 41.3689 17.2937 41.4447L21.3505 43.3015C21.4344 43.34 21.51 43.3945 21.5729 43.4622C21.6357 43.5298 21.6847 43.6092 21.7168 43.6957C21.749 43.7823 21.7639 43.8743 21.7605 43.9666C21.7571 44.0588 21.7356 44.1496 21.6971 44.2335C21.6411 44.3561 21.5509 44.4599 21.4375 44.5327C21.3241 44.6055 21.1922 44.6442 21.0574 44.6441Z" fill="white"/>
<path d="M36.0983 17.6652L33.3097 20.4538V23.5535L39.5929 26.4316L44.141 21.8869C44.3745 21.6535 44.3001 21.2584 43.9977 21.1259L36.0983 17.6652ZM17.2698 20.4538L14.7788 17.9627L14.7195 17.99C13.8125 18.4066 12.8454 18.6179 11.8451 18.6179C11.2349 18.6179 10.6274 18.5365 10.0386 18.3761L4.00247 21.0197C3.70707 21.1491 3.62756 21.5312 3.84675 21.7677L8.16872 26.4316L17.2699 22.2627L17.2698 20.4538Z" fill="#F6A96C"/>
<path d="M15.4314 18.6154L14.7788 17.9626L14.7195 17.9899C13.8125 18.4065 12.8454 18.6178 11.8451 18.6178C11.2349 18.6177 10.6274 18.5364 10.0386 18.376L4.00247 21.0197C3.70707 21.1491 3.62756 21.5312 3.84675 21.7677L8.16872 26.4316L11.0209 25.1251L8.00325 21.8688L15.4314 18.6154Z" fill="#EA9B58"/>
<path d="M36.5621 16.9299L33.4032 13.771V9.30359C33.4032 9.22788 33.3731 9.15527 33.3196 9.10173C33.2661 9.0482 33.1934 9.01812 33.1177 9.01812H28.6504L25.4914 5.85912C25.4378 5.80559 25.3652 5.77551 25.2895 5.77551C25.2138 5.77551 25.1411 5.80559 25.0876 5.85912L21.9287 9.01803H18.2915L18.2405 9.14881C18.571 9.96642 18.7408 10.8401 18.7404 11.7221C18.7404 14.4641 17.1313 16.837 14.8081 17.9473L14.7583 18.0749L17.1758 20.4925V24.9598C17.1758 25.0356 17.2059 25.1082 17.2594 25.1617C17.313 25.2152 17.3856 25.2453 17.4613 25.2453H21.9287L25.0876 28.4042C25.1411 28.4577 25.2138 28.4878 25.2895 28.4878C25.3652 28.4878 25.4378 28.4577 25.4914 28.4042L28.6503 25.2453H33.1176C33.1551 25.2453 33.1923 25.2379 33.2269 25.2236C33.2615 25.2092 33.293 25.1882 33.3195 25.1617C33.346 25.1352 33.367 25.1037 33.3814 25.0691C33.3957 25.0344 33.4031 24.9973 33.4031 24.9598V20.4925L36.562 17.3336C36.5885 17.3071 36.6096 17.2756 36.6239 17.241C36.6383 17.2063 36.6457 17.1692 36.6457 17.1317C36.6457 17.0942 36.6383 17.0571 36.624 17.0225C36.6096 16.9878 36.5886 16.9564 36.5621 16.9299Z" fill="#FE646F"/>
<path d="M20.301 14.5016C20.301 12.5376 20.7469 10.6779 21.5426 9.0177H18.2915C18.6408 9.84954 18.8342 10.763 18.8342 11.7218C18.8342 14.5417 17.1633 16.9699 14.7583 18.0747L17.1758 20.4922V24.9596C17.1758 24.9971 17.1832 25.0342 17.1976 25.0688C17.2119 25.1035 17.2329 25.135 17.2594 25.1615C17.286 25.188 17.3174 25.209 17.3521 25.2233C17.3867 25.2377 17.4238 25.2451 17.4613 25.2451H21.9287L25.0876 28.404C25.1411 28.4575 25.2138 28.4876 25.2895 28.4876C25.3652 28.4876 25.4378 28.4575 25.4914 28.404L27.8011 26.0943C23.3797 24.1064 20.301 19.6637 20.301 14.5016Z" fill="#FD4755"/>
<path d="M22.11 15.1443C22.9333 15.1443 23.6006 14.4769 23.6006 13.6536C23.6006 12.8304 22.9333 12.163 22.11 12.163C21.2868 12.163 20.6194 12.8304 20.6194 13.6536C20.6194 14.4769 21.2868 15.1443 22.11 15.1443Z" fill="white"/>
<path d="M22.1099 15.8477C20.9004 15.8477 19.9163 14.8636 19.9163 13.6541C19.9163 12.4445 20.9004 11.4604 22.1099 11.4604C23.3195 11.4604 24.3036 12.4445 24.3036 13.6541C24.3036 14.8636 23.3195 15.8477 22.1099 15.8477ZM22.1099 12.8666C21.6757 12.8666 21.3225 13.2198 21.3225 13.654C21.3225 14.0881 21.6758 14.4414 22.1099 14.4414C22.5441 14.4414 22.8973 14.0881 22.8973 13.654C22.8973 13.2198 22.5441 12.8666 22.1099 12.8666Z" fill="#C41926"/>
<path d="M28.4699 22.1005C29.2931 22.1005 29.9605 21.4331 29.9605 20.6099C29.9605 19.7866 29.2931 19.1193 28.4699 19.1193C27.6466 19.1193 26.9792 19.7866 26.9792 20.6099C26.9792 21.4331 27.6466 22.1005 28.4699 22.1005Z" fill="white"/>
<path d="M28.4696 22.8036C27.2601 22.8036 26.276 21.8195 26.276 20.6099C26.276 19.4003 27.2601 18.4162 28.4696 18.4162C29.6793 18.4162 30.6634 19.4003 30.6634 20.6099C30.6634 21.8195 29.6794 22.8036 28.4696 22.8036ZM28.4696 19.8224C28.0354 19.8224 27.6822 20.1757 27.6822 20.6098C27.6822 21.044 28.0355 21.3972 28.4696 21.3972C28.9038 21.3972 29.2571 21.044 29.2571 20.6098C29.2571 20.1757 28.9039 19.8224 28.4696 19.8224ZM22.9044 22.8037C22.7992 22.8037 22.6953 22.78 22.6006 22.7343C22.5174 22.6943 22.4428 22.6384 22.3812 22.5696C22.3195 22.5008 22.2721 22.4206 22.2414 22.3335C22.2108 22.2464 22.1977 22.1541 22.2027 22.0619C22.2078 21.9697 22.2309 21.8794 22.2709 21.7961L27.0408 11.8589C27.1215 11.6908 27.2657 11.5616 27.4416 11.4998C27.6176 11.4379 27.8109 11.4485 27.979 11.5292C28.1471 11.6099 28.2763 11.7541 28.3381 11.9301C28.4 12.106 28.3894 12.2993 28.3087 12.4674L23.5388 22.4047C23.4814 22.5242 23.3914 22.6251 23.2792 22.6958C23.1669 22.7664 23.037 22.8038 22.9044 22.8037Z" fill="#C41926"/>
<path d="M11.8451 18.7116C15.7052 18.7116 18.8344 15.5823 18.8344 11.7222C18.8344 7.86212 15.7052 4.73288 11.8451 4.73288C7.98495 4.73288 4.85571 7.86212 4.85571 11.7222C4.85571 15.5823 7.98495 18.7116 11.8451 18.7116Z" fill="#FFE177"/>
<path d="M8.03553 11.7222C8.03553 8.40929 10.3413 5.63672 13.435 4.91672C12.9138 4.79487 12.3803 4.73318 11.8451 4.73288C7.98499 4.73288 4.85571 7.86216 4.85571 11.7222C4.85571 15.5823 7.98499 18.7116 11.8451 18.7116C12.3923 18.7116 12.9239 18.6467 13.435 18.5277C10.3413 17.8077 8.03553 15.0352 8.03553 11.7222Z" fill="#FFD15B"/>
<path d="M12.6484 11.0193H11.042C10.6283 11.0193 10.2917 10.6827 10.2917 10.269C10.2917 9.85529 10.6283 9.51872 11.042 9.51872H13.8723C14.2607 9.51872 14.5755 9.20391 14.5755 8.8156C14.5755 8.42729 14.2607 8.11247 13.8723 8.11247H12.5483V7.32394C12.5483 6.93563 12.2336 6.62082 11.8452 6.62082C11.4568 6.62082 11.1421 6.93563 11.1421 7.32394V8.11247H11.042C9.8529 8.11247 8.8855 9.07988 8.8855 10.269C8.8855 11.4581 9.8529 12.4255 11.042 12.4255H12.6484C13.0622 12.4255 13.3987 12.7621 13.3987 13.1758C13.3987 13.5895 13.0622 13.9261 12.6484 13.9261H9.81822C9.42981 13.9261 9.11509 14.2409 9.11509 14.6292C9.11509 15.0175 9.42981 15.3323 9.81822 15.3323H11.1422V16.1209C11.1422 16.5092 11.4569 16.824 11.8453 16.824C12.2337 16.824 12.5484 16.5092 12.5484 16.1209V15.3323H12.6484C13.8376 15.3323 14.805 14.3649 14.805 13.1758C14.805 11.9867 13.8375 11.0193 12.6484 11.0193Z" fill="#EA9B58"/>
<path d="M39.9093 8.9136L40.7775 10.5011C40.8121 10.5642 40.864 10.6162 40.9272 10.6508L42.5147 11.519C42.7758 11.6619 42.7758 12.0371 42.5147 12.1799L40.9272 13.0482C40.864 13.0828 40.8121 13.1347 40.7775 13.1979L39.9093 14.7854C39.7664 15.0466 39.3912 15.0466 39.2483 14.7854L38.3801 13.1979C38.3455 13.1347 38.2936 13.0828 38.2304 13.0482L36.6429 12.1799C36.3817 12.0371 36.3817 11.6619 36.6429 11.519L38.2304 10.6508C38.2936 10.6162 38.3455 10.5642 38.3801 10.5011L39.2483 8.9136C39.3912 8.65242 39.7664 8.65242 39.9093 8.9136Z" fill="#FEA95C"/>
<path d="M40.3344 13.6997L39.4662 12.1122C39.4316 12.049 39.3797 11.9971 39.3165 11.9625L37.729 11.0943C37.682 11.0688 37.641 11.0337 37.6087 10.9911L36.643 11.5193C36.3817 11.6622 36.3817 12.0374 36.643 12.1803L38.2305 13.0485C38.2937 13.0831 38.3456 13.135 38.3802 13.1982L39.2484 14.7857C39.3913 15.047 39.7665 15.047 39.9093 14.7857L40.4375 13.82C40.395 13.7876 40.3598 13.7466 40.3344 13.6997Z" fill="#FE9738"/>
<path d="M20.4503 1.38779L21.1651 2.69457C21.1936 2.7466 21.2363 2.78935 21.2884 2.81785L22.5951 3.5326C22.8102 3.65026 22.8102 3.95907 22.5951 4.07673L21.2884 4.79148C21.2363 4.81996 21.1936 4.86274 21.1651 4.91476L20.4503 6.22154C20.3327 6.4366 20.0239 6.4366 19.9062 6.22154L19.1915 4.91476C19.163 4.86274 19.1202 4.81996 19.0682 4.79148L17.7614 4.07673C17.5463 3.95907 17.5463 3.65026 17.7614 3.5326L19.0682 2.81785C19.1202 2.78937 19.163 2.74659 19.1915 2.69457L19.9062 1.38779C20.0238 1.17282 20.3327 1.17282 20.4503 1.38779Z" fill="#FEA95C"/>
<path d="M20.8008 5.3267L20.086 4.01992C20.0576 3.96788 20.0148 3.9251 19.9627 3.89664L18.656 3.18189C18.6153 3.15967 18.5848 3.1292 18.5595 3.09583L17.7614 3.53233C17.5463 3.64998 17.5463 3.95879 17.7614 4.07645L19.0682 4.7912C19.1202 4.81961 19.163 4.86245 19.1915 4.91448L19.9062 6.22126C20.0239 6.43632 20.3327 6.43632 20.4503 6.22126L20.8868 5.42317C20.8536 5.39786 20.8231 5.36739 20.8008 5.3267Z" fill="#FE9738"/>
<path d="M29.4423 3.67725H28.9241C28.5357 3.67725 28.2209 3.36244 28.2209 2.97413C28.2209 2.58581 28.5357 2.271 28.9241 2.271H29.4423C29.8307 2.271 30.1454 2.58581 30.1454 2.97413C30.1454 3.36244 29.8307 3.67725 29.4423 3.67725ZM33.3796 3.67725H32.8701C32.4817 3.67725 32.167 3.36244 32.167 2.97413C32.167 2.58581 32.4817 2.271 32.8701 2.271H33.3796C33.768 2.271 34.0828 2.58581 34.0828 2.97413C34.0828 3.36244 33.768 3.67725 33.3796 3.67725ZM31.1564 1.94784C30.9699 1.94784 30.791 1.87376 30.6592 1.7419C30.5273 1.61004 30.4532 1.4312 30.4532 1.24472V0.703125C30.4532 0.314813 30.7679 0 31.1564 0C31.5448 0 31.8595 0.314813 31.8595 0.703125V1.24472C31.8595 1.4312 31.7854 1.61004 31.6535 1.7419C31.5217 1.87376 31.3428 1.94784 31.1564 1.94784ZM31.1564 5.86191C30.9699 5.86191 30.791 5.78783 30.6592 5.65597C30.5273 5.5241 30.4532 5.34526 30.4532 5.15878V4.70353C30.4532 4.31522 30.7679 4.00041 31.1564 4.00041C31.5448 4.00041 31.8595 4.31522 31.8595 4.70353V5.15878C31.8595 5.34526 31.7854 5.5241 31.6535 5.65597C31.5217 5.78783 31.3428 5.86191 31.1564 5.86191Z" fill="#FFD15B"/>
<path d="M21.0567 42.0892C20.9559 42.0891 20.8563 42.0673 20.7646 42.0252L16.7079 40.1684C16.6239 40.13 16.5483 40.0754 16.4855 40.0078C16.4226 39.9401 16.3737 39.8608 16.3415 39.7742C16.3093 39.6877 16.2945 39.5956 16.2978 39.5034C16.3012 39.4111 16.3227 39.3204 16.3612 39.2364C16.4388 39.0669 16.5806 38.9352 16.7554 38.8702C16.9301 38.8052 17.1235 38.8122 17.2931 38.8897L21.3498 40.7466C21.4338 40.785 21.5093 40.8396 21.5722 40.9072C21.6351 40.9748 21.684 41.0542 21.7162 41.1407C21.7484 41.2273 21.7632 41.3193 21.7598 41.4116C21.7565 41.5039 21.7349 41.5946 21.6965 41.6785C21.6404 41.8011 21.5503 41.9049 21.4369 41.9777C21.3235 42.0505 21.1915 42.0892 21.0567 42.0892Z" fill="white"/>
<path d="M26.7356 35.4561L36.7379 30.8781V38.9756L26.7356 43.5536V35.4561Z" fill="#FFE177"/>
<path d="M29.1514 37L36.7379 33.5278V30.8781L26.7356 35.4561V43.5536L29.1514 42.4479V37Z" fill="#FFD15B"/>
</g>
<defs>
<clipPath id="clip0_50_4994">
<rect width="48" height="48" fill="white"/>
</clipPath>
</defs>
</svg>
