<svg width="20" height="20" viewBox="0 0 20 20" fill="none" xmlns="http://www.w3.org/2000/svg">
<path d="M11.3983 17.5001C10.4284 17.5001 9.05578 16.8182 7.97081 13.5569L7.37901 11.7825L5.60361 11.191C2.34872 10.1067 1.6665 8.73476 1.6665 7.7654C1.6665 6.80425 2.34872 5.42415 5.60361 4.33156L12.5819 2.00674C14.3244 1.42348 15.7793 1.59599 16.6752 2.4832C17.5711 3.37042 17.7437 4.83267 17.1601 6.57424L14.834 13.5487C13.7409 16.8182 12.3682 17.5001 11.3983 17.5001ZM5.98993 5.5063C3.70492 6.27028 2.8912 7.17392 2.8912 7.7654C2.8912 8.35687 3.70492 9.26052 5.98993 10.0163L8.06123 10.7063C8.24205 10.7638 8.39 10.9117 8.44754 11.0924L9.13797 13.1626C9.89416 15.4464 10.8065 16.2596 11.3983 16.2596C11.9901 16.2596 12.8943 15.4464 13.6587 13.1626L15.9848 6.18813C16.404 4.92304 16.33 3.88796 15.7957 3.35399C15.2615 2.82002 14.2258 2.7543 12.9682 3.17326L5.98993 5.5063Z" fill="#5D3399"/>
<path d="M8.11371 11.6667C7.95772 11.6667 7.80172 11.6093 7.67857 11.4865C7.44048 11.249 7.44048 10.8559 7.67857 10.6183L10.6178 7.67813C10.8559 7.44062 11.25 7.44062 11.4881 7.67813C11.7262 7.91564 11.7262 8.30876 11.4881 8.54627L8.54885 11.4865C8.43391 11.6093 8.2697 11.6667 8.11371 11.6667Z" fill="#5D3399"/>
</svg>
