<svg width="20" height="21" viewBox="0 0 20 21" fill="none" xmlns="http://www.w3.org/2000/svg">
<path d="M16.6663 11.3331C16.6663 15.4997 13.7497 17.5831 10.283 18.7914C10.1015 18.8529 9.90429 18.85 9.72467 18.7831C6.24967 17.5831 3.33301 15.4997 3.33301 11.3331V5.49972C3.33301 5.27871 3.42081 5.06675 3.57709 4.91047C3.73337 4.75419 3.94533 4.66639 4.16634 4.66639C5.83301 4.66639 7.91634 3.66639 9.36634 2.39972C9.54289 2.24889 9.76747 2.16602 9.99967 2.16602C10.2319 2.16602 10.4565 2.24889 10.633 2.39972C12.0913 3.67472 14.1663 4.66639 15.833 4.66639C16.054 4.66639 16.266 4.75419 16.4223 4.91047C16.5785 5.06675 16.6663 5.27871 16.6663 5.49972V11.3331Z" stroke="#5D3399" stroke-linecap="round" stroke-linejoin="round"/>
</svg>
