<svg width="20" height="21" viewBox="0 0 20 21" fill="none" xmlns="http://www.w3.org/2000/svg">
<path d="M11.6667 15.5002V5.50016C11.6667 5.05814 11.4911 4.63421 11.1785 4.32165C10.866 4.00909 10.442 3.8335 10 3.8335H3.33335C2.89133 3.8335 2.4674 4.00909 2.15484 4.32165C1.84228 4.63421 1.66669 5.05814 1.66669 5.50016V14.6668C1.66669 14.8878 1.75448 15.0998 1.91076 15.2561C2.06704 15.4124 2.27901 15.5002 2.50002 15.5002H4.16669M4.16669 15.5002C4.16669 16.4206 4.91288 17.1668 5.83335 17.1668C6.75383 17.1668 7.50002 16.4206 7.50002 15.5002M4.16669 15.5002C4.16669 14.5797 4.91288 13.8335 5.83335 13.8335C6.75383 13.8335 7.50002 14.5797 7.50002 15.5002M12.5 15.5002H7.50002M12.5 15.5002C12.5 16.4206 13.2462 17.1668 14.1667 17.1668C15.0872 17.1668 15.8334 16.4206 15.8334 15.5002M12.5 15.5002C12.5 14.5797 13.2462 13.8335 14.1667 13.8335C15.0872 13.8335 15.8334 14.5797 15.8334 15.5002M15.8334 15.5002H17.5C17.721 15.5002 17.933 15.4124 18.0893 15.2561C18.2456 15.0998 18.3334 14.8878 18.3334 14.6668V11.6252C18.333 11.436 18.2684 11.2527 18.15 11.1052L15.25 7.48016C15.1721 7.38256 15.0732 7.30373 14.9607 7.24949C14.8482 7.19526 14.7249 7.16701 14.6 7.16683H11.6667" stroke="#5D3399" stroke-linecap="round" stroke-linejoin="round"/>
</svg>
