<svg width="20" height="21" viewBox="0 0 20 21" fill="none" xmlns="http://www.w3.org/2000/svg">
<path d="M15.5556 18.8332C15.5556 17.3597 14.9702 15.9467 13.9284 14.9048C12.8865 13.8629 11.4734 13.2776 10 13.2776M10 13.2776C8.52658 13.2776 7.1135 13.8629 6.07163 14.9048C5.02977 15.9467 4.44445 17.3597 4.44445 18.8332M10 13.2776C12.0455 13.2776 13.7037 11.6194 13.7037 9.57391C13.7037 7.52841 12.0455 5.87021 10 5.87021C7.95451 5.87021 6.2963 7.52841 6.2963 9.57391C6.2963 11.6194 7.95451 13.2776 10 13.2776ZM3.51852 2.1665H16.4815C17.5042 2.1665 18.3333 2.99561 18.3333 4.01836V16.9813C18.3333 18.0041 17.5042 18.8332 16.4815 18.8332H3.51852C2.49577 18.8332 1.66667 18.0041 1.66667 16.9813V4.01836C1.66667 2.99561 2.49577 2.1665 3.51852 2.1665Z" stroke="#5D3399" stroke-linecap="round" stroke-linejoin="round"/>
</svg>
