<svg width="44" height="43" viewBox="0 0 44 43" fill="none" xmlns="http://www.w3.org/2000/svg">
<path d="M18.9793 28.8771V19.3141C18.9791 16.7471 18.2903 14.2271 16.9846 12.0169L14.3172 7.50329V5.35156H7.86206V7.50329L5.19464 12.0169C3.88899 14.2271 3.20017 16.7471 3.19999 19.3141V28.8771C3.20007 29.4497 3.26236 30.0206 3.38575 30.5798L4.26724 34.5677C4.40068 35.1716 4.46802 35.7882 4.46807 36.4067C4.44199 38.0039 4.11268 39.5816 3.49764 41.0558C3.29878 41.563 3.19778 42.1033 3.19999 42.6481C3.19999 44.6284 4.48457 46.2343 6.06895 46.2343C6.64936 46.2291 7.20886 46.017 7.64688 45.6362C7.90856 45.4149 8.24018 45.2934 8.58288 45.2934C8.92559 45.2934 9.25721 45.4149 9.51888 45.6362C9.95281 46.0214 10.5129 46.2342 11.0932 46.2342C11.6735 46.2342 12.2336 46.0214 12.6676 45.6362C12.9293 45.4149 13.2609 45.2934 13.6036 45.2934C13.9463 45.2934 14.2779 45.4149 14.5396 45.6362C14.9757 46.0154 15.5324 46.2274 16.1103 46.2343C17.6947 46.2343 18.9793 44.6284 18.9793 42.6481C18.9815 42.1033 18.8805 41.563 18.6816 41.0558C18.0668 39.582 17.7375 38.0048 17.7112 36.4081C17.7113 35.7896 17.7786 35.173 17.912 34.5691L18.7935 30.5812C18.917 30.0216 18.9793 29.4502 18.9793 28.8771Z" fill="#FFF078"/>
<path d="M6.98762 12.0169C5.68198 14.2271 4.99315 16.7471 4.99297 19.3141V28.8771C4.99306 29.4497 5.05534 30.0206 5.17874 30.5798L6.06023 34.5677C6.19366 35.1716 6.261 35.7882 6.26105 36.4067C6.23491 38.0039 5.90559 39.5816 5.29063 41.0558C5.09176 41.563 4.99076 42.1033 4.99297 42.6481C4.95727 43.3456 5.12599 44.0383 5.47841 44.6412C5.83084 45.2441 6.35163 45.731 6.97686 46.0421C7.21788 45.9406 7.44245 45.8038 7.64318 45.6362C7.90486 45.4149 8.23647 45.2934 8.57918 45.2934C8.92188 45.2934 9.2535 45.4149 9.51518 45.6362C9.9491 46.0214 10.5092 46.2342 11.0895 46.2342C11.6698 46.2342 12.2299 46.0214 12.6639 45.6362C12.9255 45.4149 13.2572 45.2934 13.5999 45.2934C13.9426 45.2934 14.2742 45.4149 14.5359 45.6362C14.973 46.0162 15.531 46.2282 16.1102 46.2343C17.6946 46.2343 18.9792 44.6284 18.9792 42.6481C18.9814 42.1033 18.8804 41.563 18.6815 41.0558C18.0667 39.582 17.7374 38.0048 17.7111 36.4081C17.7112 35.7896 17.7785 35.173 17.9119 34.5691L18.7934 30.5812C18.9169 30.0216 18.9792 29.4502 18.9792 28.8771V19.3141C18.979 16.7471 18.2902 14.2271 16.9845 12.0169L14.3171 7.50329V5.35156H9.65504V7.50329L6.98762 12.0169Z" fill="#FFE141"/>
<path d="M3.19995 19.3142V27.5862H18.9793V19.3142C18.979 18.7227 18.9424 18.1318 18.8695 17.5448H3.30969C3.23682 18.1318 3.20017 18.7227 3.19995 19.3142Z" fill="#E7EB87"/>
<path d="M5.10721 17.5448C5.03255 18.1317 4.99446 18.7226 4.99316 19.3142V27.5862H18.9794V19.3142C18.9792 18.7227 18.9425 18.1318 18.8696 17.5448H5.10721Z" fill="#92F54A"/>
<path d="M8.22062 1.7655H13.9585C14.339 1.7655 14.7039 1.91664 14.9729 2.18565C15.2419 2.45467 15.393 2.81954 15.393 3.19999V5.35171H6.78613V3.19999C6.78613 2.81954 6.93727 2.45467 7.20628 2.18565C7.4753 1.91664 7.84017 1.7655 8.22062 1.7655Z" fill="#F66E78"/>
<path d="M8.2207 4.6344V5.35164H15.3931V3.19992H9.65519C9.27474 3.19992 8.90987 3.35105 8.64085 3.62007C8.37184 3.88909 8.2207 4.25396 8.2207 4.6344Z" fill="#F44E55"/>
<path d="M16.1103 21.669H6.06894C5.92627 21.669 5.78944 21.6124 5.68856 21.5115C5.58768 21.4106 5.53101 21.2738 5.53101 21.1311C5.53101 20.9884 5.58768 20.8516 5.68856 20.7507C5.78944 20.6498 5.92627 20.5932 6.06894 20.5932H16.1103C16.253 20.5932 16.3898 20.6498 16.4907 20.7507C16.5916 20.8516 16.6482 20.9884 16.6482 21.1311C16.6482 21.2738 16.5916 21.4106 16.4907 21.5115C16.3898 21.6124 16.253 21.669 16.1103 21.669ZM13.9586 24.538H8.22066C8.07799 24.538 7.94117 24.4813 7.84029 24.3804C7.73941 24.2796 7.68273 24.1427 7.68273 24.0001C7.68273 23.8574 7.73941 23.7206 7.84029 23.6197C7.94117 23.5188 8.07799 23.4621 8.22066 23.4621H13.9586C14.1013 23.4621 14.2381 23.5188 14.339 23.6197C14.4398 23.7206 14.4965 23.8574 14.4965 24.0001C14.4965 24.1427 14.4398 24.2796 14.339 24.3804C14.2381 24.4813 14.1013 24.538 13.9586 24.538Z" fill="#70D443"/>
<path d="M5.74268 11.0895H16.4367L14.3173 7.50329V5.35156H7.86212V7.50329L5.74268 11.0895Z" fill="#FBF6F2"/>
<path d="M7.53589 11.0895H16.4369L14.3174 7.50329V5.35156H9.65534V7.50329L7.53589 11.0895Z" fill="#F4EEE8"/>
<path d="M44.7999 28.8771V19.3141C44.7997 16.7471 44.1108 14.2271 42.8052 12.0169L40.1378 7.50329V5.35156H33.6826V7.50329L31.0152 12.0169C29.7095 14.2271 29.0207 16.7471 29.0205 19.3141V28.8771C29.0206 29.4497 29.0829 30.0206 29.2063 30.5798L30.0878 34.5677C30.2212 35.1716 30.2886 35.7882 30.2886 36.4067C30.2626 38.0041 29.9333 39.5821 29.3182 41.0566C29.1194 41.5635 29.0184 42.1036 29.0205 42.6481C29.0205 44.6284 30.3051 46.2343 31.8895 46.2343C32.4699 46.2291 33.0294 46.017 33.4674 45.6362C33.7291 45.4149 34.0607 45.2934 34.4034 45.2934C34.7461 45.2934 35.0778 45.4149 35.3394 45.6362C35.7734 46.0214 36.3335 46.2342 36.9138 46.2342C37.4941 46.2342 38.0542 46.0214 38.4881 45.6362C38.7498 45.4149 39.0814 45.2934 39.4241 45.2934C39.7668 45.2934 40.0984 45.4149 40.3601 45.6362C40.7963 46.0154 41.353 46.2274 41.9309 46.2343C43.5153 46.2343 44.7999 44.6284 44.7999 42.6481C44.8021 42.1033 44.7011 41.563 44.5022 41.0558C43.8873 39.582 43.558 38.0048 43.5318 36.4081C43.5318 35.7896 43.5992 35.173 43.7326 34.5691L44.6141 30.5812C44.7376 30.0216 44.7999 29.4502 44.7999 28.8771Z" fill="#F66E78"/>
<path d="M32.8082 12.0169C31.5025 14.2271 30.8137 16.7471 30.8135 19.3141V28.8771C30.8136 29.4497 30.8759 30.0206 30.9993 30.5798L31.8808 34.5677C32.0142 35.1716 32.0816 35.7882 32.0816 36.4067C32.0556 38.0041 31.7262 39.5821 31.1112 41.0566C30.9124 41.5635 30.8114 42.1036 30.8135 42.6481C30.7778 43.3456 30.9465 44.0383 31.299 44.6412C31.6514 45.2441 32.1722 45.731 32.7974 46.0421C33.0384 45.9406 33.263 45.8038 33.4637 45.6362C33.7254 45.4149 34.057 45.2934 34.3997 45.2934C34.7424 45.2934 35.0741 45.4149 35.3357 45.6362C35.7697 46.0214 36.3298 46.2342 36.9101 46.2342C37.4904 46.2342 38.0505 46.0214 38.4844 45.6362C38.7461 45.4149 39.0777 45.2934 39.4204 45.2934C39.7631 45.2934 40.0947 45.4149 40.3564 45.6362C40.7935 46.0162 41.3516 46.2282 41.9308 46.2343C43.5152 46.2343 44.7997 44.6284 44.7997 42.6481C44.8019 42.1033 44.7009 41.563 44.5021 41.0558C43.8873 39.582 43.558 38.0048 43.5316 36.4081C43.5317 35.7896 43.599 35.173 43.7325 34.5691L44.614 30.5812C44.7375 30.0216 44.7998 29.4502 44.7997 28.8771V19.3141C44.7996 16.7471 44.1107 14.2271 42.8051 12.0169L40.1377 7.50329V5.35156H35.4756V7.50329L32.8082 12.0169Z" fill="#F44E55"/>
<path d="M29.0205 19.3142V27.5862H44.7998V19.3142C44.7996 18.7227 44.7629 18.1318 44.6901 17.5448H29.1302C29.0574 18.1318 29.0207 18.7227 29.0205 19.3142Z" fill="#E7EB87"/>
<path d="M30.9278 17.5448C30.8531 18.1317 30.815 18.7226 30.8137 19.3142V27.5862H44.7999V19.3142C44.7997 18.7227 44.7631 18.1318 44.6902 17.5448H30.9278Z" fill="#70D443"/>
<path d="M34.0414 1.7655H39.7793C40.1598 1.7655 40.5247 1.91664 40.7937 2.18565C41.0627 2.45467 41.2138 2.81954 41.2138 3.19999V5.35171H32.6069V3.19999C32.6069 2.81954 32.7581 2.45467 33.0271 2.18565C33.2961 1.91664 33.661 1.7655 34.0414 1.7655Z" fill="#F66E78"/>
<path d="M34.0413 4.6344V5.35164H41.2137V3.19992H35.4757C35.0953 3.19992 34.7304 3.35105 34.4614 3.62007C34.1924 3.88909 34.0413 4.25396 34.0413 4.6344Z" fill="#F44E55"/>
<path d="M41.9311 21.669H31.8897C31.7471 21.669 31.6102 21.6124 31.5094 21.5115C31.4085 21.4106 31.3518 21.2738 31.3518 21.1311C31.3518 20.9884 31.4085 20.8516 31.5094 20.7507C31.6102 20.6498 31.7471 20.5932 31.8897 20.5932H41.9311C42.0738 20.5932 42.2106 20.6498 42.3115 20.7507C42.4124 20.8516 42.469 20.9884 42.469 21.1311C42.469 21.2738 42.4124 21.4106 42.3115 21.5115C42.2106 21.6124 42.0738 21.669 41.9311 21.669ZM39.7794 24.538H34.0415C33.8988 24.538 33.762 24.4813 33.6611 24.3804C33.5602 24.2796 33.5035 24.1427 33.5035 24.0001C33.5035 23.8574 33.5602 23.7206 33.6611 23.6197C33.762 23.5188 33.8988 23.4621 34.0415 23.4621H39.7794C39.9221 23.4621 40.0589 23.5188 40.1598 23.6197C40.2607 23.7206 40.3173 23.8574 40.3173 24.0001C40.3173 24.1427 40.2607 24.2796 40.1598 24.3804C40.0589 24.4813 39.9221 24.538 39.7794 24.538Z" fill="#92F54A"/>
<path d="M31.5635 11.0895H42.2576L40.1381 7.50329V5.35156H33.6829V7.50329L31.5635 11.0895Z" fill="#FBF6F2"/>
<path d="M33.3564 11.0895H42.2574L40.138 7.50329V5.35156H35.4759V7.50329L33.3564 11.0895Z" fill="#F4EEE8"/>
<path d="M31.8897 28.8771V19.3141C31.8895 16.7471 31.2007 14.2271 29.895 12.0169L27.2276 7.50329V5.35156H20.7725V7.50329L18.105 12.0169C16.7994 14.2271 16.1106 16.7471 16.1104 19.3141V28.8771C16.1105 29.4497 16.1728 30.0206 16.2962 30.5798L17.1776 34.5677C17.3111 35.1716 17.3784 35.7882 17.3785 36.4067C17.3525 38.0041 17.0232 39.5821 16.408 41.0566C16.2093 41.5635 16.1083 42.1036 16.1104 42.6481C16.1104 44.6284 17.395 46.2343 18.9793 46.2343C19.5598 46.2291 20.1193 46.017 20.5573 45.6362C20.819 45.4149 21.1506 45.2934 21.4933 45.2934C21.836 45.2934 22.1676 45.4149 22.4293 45.6362C22.8632 46.0214 23.4233 46.2342 24.0036 46.2342C24.5839 46.2342 25.144 46.0214 25.578 45.6362C25.8397 45.4149 26.1713 45.2934 26.514 45.2934C26.8567 45.2934 27.1883 45.4149 27.45 45.6362C27.8861 46.0154 28.4428 46.2274 29.0207 46.2343C30.6051 46.2343 31.8897 44.6284 31.8897 42.6481C31.8919 42.1033 31.7909 41.563 31.592 41.0558C30.9772 39.582 30.6479 38.0048 30.6216 36.4081C30.6217 35.7896 30.689 35.173 30.8224 34.5691L31.7039 30.5812C31.8274 30.0216 31.8897 29.4502 31.8897 28.8771Z" fill="#966453"/>
<path d="M19.898 12.0169C18.5924 14.2271 17.9036 16.7471 17.9034 19.3141V28.8771C17.9035 29.4497 17.9657 30.0206 18.0891 30.5798L18.9706 34.5677C19.1041 35.1716 19.1714 35.7882 19.1715 36.4067C19.1454 38.0041 18.8161 39.5821 18.201 41.0566C18.0023 41.5635 17.9013 42.1036 17.9034 42.6481C17.8677 43.3456 18.0364 44.0383 18.3888 44.6412C18.7412 45.2441 19.262 45.731 19.8873 46.0421C20.1283 45.9406 20.3528 45.8038 20.5536 45.6362C20.8153 45.4149 21.1469 45.2934 21.4896 45.2934C21.8323 45.2934 22.1639 45.4149 22.4256 45.6362C22.8595 46.0214 23.4196 46.2342 23.9999 46.2342C24.5802 46.2342 25.1403 46.0214 25.5743 45.6362C25.8359 45.4149 26.1676 45.2934 26.5103 45.2934C26.853 45.2934 27.1846 45.4149 27.4463 45.6362C27.8834 46.0162 28.4414 46.2282 29.0206 46.2343C30.605 46.2343 31.8896 44.6284 31.8896 42.6481C31.8918 42.1033 31.7908 41.563 31.5919 41.0558C30.9771 39.582 30.6478 38.0048 30.6215 36.4081C30.6215 35.7896 30.6889 35.173 30.8223 34.5691L31.7038 30.5812C31.8273 30.0216 31.8896 29.4502 31.8896 28.8771V19.3141C31.8894 16.7471 31.2006 14.2271 29.8949 12.0169L27.2275 7.50329V5.35156H22.5654V7.50329L19.898 12.0169Z" fill="#845344"/>
<path d="M16.1104 19.3142V27.5862H31.8897V19.3142C31.8894 18.7227 31.8528 18.1318 31.7799 17.5448H16.2201C16.1472 18.1318 16.1106 18.7227 16.1104 19.3142Z" fill="#E7EB87"/>
<path d="M18.0174 17.5448C17.9427 18.1317 17.9046 18.7226 17.9033 19.3142V27.5862H31.8895V19.3142C31.8893 18.7227 31.8527 18.1318 31.7798 17.5448H18.0174Z" fill="#92F54A"/>
<path d="M21.131 1.7655H26.8689C27.2494 1.7655 27.6143 1.91664 27.8833 2.18565C28.1523 2.45467 28.3034 2.81954 28.3034 3.19999V5.35171H19.6965V3.19999C19.6965 2.81954 19.8477 2.45467 20.1167 2.18565C20.3857 1.91664 20.7506 1.7655 21.131 1.7655Z" fill="#F66E78"/>
<path d="M21.1309 4.6344V5.35164H28.3033V3.19992H22.5653C22.1849 3.19992 21.82 3.35105 21.551 3.62007C21.282 3.88909 21.1309 4.25396 21.1309 4.6344Z" fill="#F44E55"/>
<path d="M29.0205 21.669H18.9791C18.8364 21.669 18.6996 21.6124 18.5987 21.5115C18.4978 21.4106 18.4412 21.2738 18.4412 21.1311C18.4412 20.9884 18.4978 20.8516 18.5987 20.7507C18.6996 20.6498 18.8364 20.5932 18.9791 20.5932H29.0205C29.1631 20.5932 29.3 20.6498 29.4008 20.7507C29.5017 20.8516 29.5584 20.9884 29.5584 21.1311C29.5584 21.2738 29.5017 21.4106 29.4008 21.5115C29.3 21.6124 29.1631 21.669 29.0205 21.669ZM27.586 24.538H20.4136C20.2709 24.538 20.1341 24.4813 20.0332 24.3804C19.9323 24.2796 19.8756 24.1427 19.8756 24.0001C19.8756 23.8574 19.9323 23.7206 20.0332 23.6197C20.1341 23.5188 20.2709 23.4621 20.4136 23.4621H27.586C27.7287 23.4621 27.8655 23.5188 27.9664 23.6197C28.0672 23.7206 28.1239 23.8574 28.1239 24.0001C28.1239 24.1427 28.0672 24.2796 27.9664 24.3804C27.8655 24.4813 27.7287 24.538 27.586 24.538Z" fill="#70D443"/>
<path d="M18.6531 11.0895H29.3471L27.2277 7.50329V5.35156H20.7725V7.50329L18.6531 11.0895Z" fill="#FBF6F2"/>
<path d="M20.4463 11.0895H29.3473L27.2278 7.50329V5.35156H22.5657V7.50329L20.4463 11.0895Z" fill="#F4EEE8"/>
</svg>
